<svg xmlns="http://www.w3.org/2000/svg" xmlns:xlink="http://www.w3.org/1999/xlink" width="500" zoomAndPan="magnify" viewBox="0 0 375 374.999991" height="500" preserveAspectRatio="xMidYMid meet" version="1.0"><defs><g/></defs><g fill="#f8f7f4" fill-opacity="1"><g transform="translate(49.523866, 197.820061)"><g><path d="M 1.625 -33.1875 C 1.625 -36.71875 2.460938 -39.425781 4.140625 -41.3125 C 5.828125 -43.207031 8.351562 -44.15625 11.71875 -44.15625 C 15.09375 -44.15625 17.617188 -43.207031 19.296875 -41.3125 C 20.984375 -39.425781 21.828125 -36.71875 21.828125 -33.1875 L 21.828125 -31.5 L 15.34375 -31.5 L 15.34375 -33.625 C 15.34375 -35.195312 15.039062 -36.304688 14.4375 -36.953125 C 13.832031 -37.597656 12.988281 -37.921875 11.90625 -37.921875 C 10.832031 -37.921875 9.992188 -37.597656 9.390625 -36.953125 C 8.785156 -36.304688 8.484375 -35.195312 8.484375 -33.625 C 8.484375 -32.125 8.816406 -30.800781 9.484375 -29.65625 C 10.148438 -28.507812 10.976562 -27.425781 11.96875 -26.40625 C 12.96875 -25.394531 14.039062 -24.378906 15.1875 -23.359375 C 16.332031 -22.335938 17.398438 -21.222656 18.390625 -20.015625 C 19.390625 -18.816406 20.222656 -17.445312 20.890625 -15.90625 C 21.554688 -14.363281 21.890625 -12.554688 21.890625 -10.484375 C 21.890625 -6.941406 21.023438 -4.222656 19.296875 -2.328125 C 17.578125 -0.441406 15.035156 0.5 11.671875 0.5 C 8.296875 0.5 5.742188 -0.441406 4.015625 -2.328125 C 2.296875 -4.222656 1.4375 -6.941406 1.4375 -10.484375 L 1.4375 -13.46875 L 7.921875 -13.46875 L 7.921875 -10.046875 C 7.921875 -8.460938 8.242188 -7.359375 8.890625 -6.734375 C 9.535156 -6.109375 10.398438 -5.796875 11.484375 -5.796875 C 12.554688 -5.796875 13.414062 -6.109375 14.0625 -6.734375 C 14.707031 -7.359375 15.03125 -8.460938 15.03125 -10.046875 C 15.03125 -11.535156 14.695312 -12.851562 14.03125 -14 C 13.363281 -15.144531 12.53125 -16.226562 11.53125 -17.25 C 10.539062 -18.269531 9.472656 -19.285156 8.328125 -20.296875 C 7.179688 -21.316406 6.109375 -22.429688 5.109375 -23.640625 C 4.117188 -24.847656 3.289062 -26.21875 2.625 -27.75 C 1.957031 -29.289062 1.625 -31.101562 1.625 -33.1875 Z M 1.625 -33.1875 "/></g></g></g><g fill="#f8f7f4" fill-opacity="1"><g transform="translate(93.123519, 197.820061)"><g><path d="M 8.796875 -10.046875 C 8.796875 -8.460938 9.117188 -7.347656 9.765625 -6.703125 C 10.410156 -6.054688 11.269531 -5.734375 12.34375 -5.734375 C 13.425781 -5.734375 14.289062 -6.054688 14.9375 -6.703125 C 15.582031 -7.347656 15.90625 -8.460938 15.90625 -10.046875 L 15.90625 -33.625 C 15.90625 -35.195312 15.582031 -36.304688 14.9375 -36.953125 C 14.289062 -37.597656 13.425781 -37.921875 12.34375 -37.921875 C 11.269531 -37.921875 10.410156 -37.597656 9.765625 -36.953125 C 9.117188 -36.304688 8.796875 -35.195312 8.796875 -33.625 Z M 1.9375 -33.1875 C 1.9375 -36.71875 2.828125 -39.425781 4.609375 -41.3125 C 6.398438 -43.207031 8.976562 -44.15625 12.34375 -44.15625 C 15.71875 -44.15625 18.296875 -43.207031 20.078125 -41.3125 C 21.867188 -39.425781 22.765625 -36.71875 22.765625 -33.1875 L 22.765625 -10.484375 C 22.765625 -6.941406 21.867188 -4.222656 20.078125 -2.328125 C 18.296875 -0.441406 15.71875 0.5 12.34375 0.5 C 8.976562 0.5 6.398438 -0.441406 4.609375 -2.328125 C 2.828125 -4.222656 1.9375 -6.941406 1.9375 -10.484375 Z M 1.9375 -33.1875 "/></g></g></g><g fill="#f8f7f4" fill-opacity="1"><g transform="translate(138.095249, 197.820061)"><g><path d="M 1.625 -33.1875 C 1.625 -36.71875 2.460938 -39.425781 4.140625 -41.3125 C 5.828125 -43.207031 8.351562 -44.15625 11.71875 -44.15625 C 15.09375 -44.15625 17.617188 -43.207031 19.296875 -41.3125 C 20.984375 -39.425781 21.828125 -36.71875 21.828125 -33.1875 L 21.828125 -31.5 L 15.34375 -31.5 L 15.34375 -33.625 C 15.34375 -35.195312 15.039062 -36.304688 14.4375 -36.953125 C 13.832031 -37.597656 12.988281 -37.921875 11.90625 -37.921875 C 10.832031 -37.921875 9.992188 -37.597656 9.390625 -36.953125 C 8.785156 -36.304688 8.484375 -35.195312 8.484375 -33.625 C 8.484375 -32.125 8.816406 -30.800781 9.484375 -29.65625 C 10.148438 -28.507812 10.976562 -27.425781 11.96875 -26.40625 C 12.96875 -25.394531 14.039062 -24.378906 15.1875 -23.359375 C 16.332031 -22.335938 17.398438 -21.222656 18.390625 -20.015625 C 19.390625 -18.816406 20.222656 -17.445312 20.890625 -15.90625 C 21.554688 -14.363281 21.890625 -12.554688 21.890625 -10.484375 C 21.890625 -6.941406 21.023438 -4.222656 19.296875 -2.328125 C 17.578125 -0.441406 15.035156 0.5 11.671875 0.5 C 8.296875 0.5 5.742188 -0.441406 4.015625 -2.328125 C 2.296875 -4.222656 1.4375 -6.941406 1.4375 -10.484375 L 1.4375 -13.46875 L 7.921875 -13.46875 L 7.921875 -10.046875 C 7.921875 -8.460938 8.242188 -7.359375 8.890625 -6.734375 C 9.535156 -6.109375 10.398438 -5.796875 11.484375 -5.796875 C 12.554688 -5.796875 13.414062 -6.109375 14.0625 -6.734375 C 14.707031 -7.359375 15.03125 -8.460938 15.03125 -10.046875 C 15.03125 -11.535156 14.695312 -12.851562 14.03125 -14 C 13.363281 -15.144531 12.53125 -16.226562 11.53125 -17.25 C 10.539062 -18.269531 9.472656 -19.285156 8.328125 -20.296875 C 7.179688 -21.316406 6.109375 -22.429688 5.109375 -23.640625 C 4.117188 -24.847656 3.289062 -26.21875 2.625 -27.75 C 1.957031 -29.289062 1.625 -31.101562 1.625 -33.1875 Z M 1.625 -33.1875 "/></g></g></g><g fill="#f8f7f4" fill-opacity="1"><g transform="translate(181.694902, 197.820061)"><g><path d="M 0.625 -43.65625 L 21.828125 -43.65625 L 21.828125 -37.421875 L 14.65625 -37.421875 L 14.65625 0 L 7.796875 0 L 7.796875 -37.421875 L 0.625 -37.421875 Z M 0.625 -43.65625 "/></g></g></g><g fill="#f8f7f4" fill-opacity="1"><g transform="translate(224.421405, 197.820061)"><g><path d="M 8.796875 -10.046875 C 8.796875 -8.460938 9.117188 -7.347656 9.765625 -6.703125 C 10.410156 -6.054688 11.269531 -5.734375 12.34375 -5.734375 C 13.425781 -5.734375 14.289062 -6.054688 14.9375 -6.703125 C 15.582031 -7.347656 15.90625 -8.460938 15.90625 -10.046875 L 15.90625 -33.625 C 15.90625 -35.195312 15.582031 -36.304688 14.9375 -36.953125 C 14.289062 -37.597656 13.425781 -37.921875 12.34375 -37.921875 C 11.269531 -37.921875 10.410156 -37.597656 9.765625 -36.953125 C 9.117188 -36.304688 8.796875 -35.195312 8.796875 -33.625 Z M 1.9375 -33.1875 C 1.9375 -36.71875 2.828125 -39.425781 4.609375 -41.3125 C 6.398438 -43.207031 8.976562 -44.15625 12.34375 -44.15625 C 15.71875 -44.15625 18.296875 -43.207031 20.078125 -41.3125 C 21.867188 -39.425781 22.765625 -36.71875 22.765625 -33.1875 L 22.765625 -10.484375 C 22.765625 -6.941406 21.867188 -4.222656 20.078125 -2.328125 C 18.296875 -0.441406 15.71875 0.5 12.34375 0.5 C 8.976562 0.5 6.398438 -0.441406 4.609375 -2.328125 C 2.828125 -4.222656 1.9375 -6.941406 1.9375 -10.484375 Z M 1.9375 -33.1875 "/></g></g></g><g fill="#f8f7f4" fill-opacity="1"><g transform="translate(269.393146, 197.820061)"><g><path d="M 16.84375 0 C 16.757812 -0.289062 16.675781 -0.5625 16.59375 -0.8125 C 16.507812 -1.0625 16.4375 -1.375 16.375 -1.75 C 16.3125 -2.125 16.269531 -2.597656 16.25 -3.171875 C 16.226562 -3.753906 16.21875 -4.484375 16.21875 -5.359375 L 16.21875 -12.21875 C 16.21875 -14.257812 15.863281 -15.695312 15.15625 -16.53125 C 14.445312 -17.363281 13.300781 -17.78125 11.71875 -17.78125 L 9.359375 -17.78125 L 9.359375 0 L 2.5 0 L 2.5 -43.65625 L 12.84375 -43.65625 C 16.425781 -43.65625 19.015625 -42.820312 20.609375 -41.15625 C 22.210938 -39.5 23.015625 -36.988281 23.015625 -33.625 L 23.015625 -30.1875 C 23.015625 -25.695312 21.519531 -22.742188 18.53125 -21.328125 C 20.269531 -20.617188 21.460938 -19.460938 22.109375 -17.859375 C 22.753906 -16.265625 23.078125 -14.320312 23.078125 -12.03125 L 23.078125 -5.296875 C 23.078125 -4.222656 23.117188 -3.28125 23.203125 -2.46875 C 23.285156 -1.65625 23.492188 -0.832031 23.828125 0 Z M 9.359375 -37.421875 L 9.359375 -24.015625 L 12.03125 -24.015625 C 13.320312 -24.015625 14.332031 -24.347656 15.0625 -25.015625 C 15.789062 -25.679688 16.15625 -26.882812 16.15625 -28.625 L 16.15625 -32.9375 C 16.15625 -34.507812 15.875 -35.648438 15.3125 -36.359375 C 14.75 -37.066406 13.863281 -37.421875 12.65625 -37.421875 Z M 9.359375 -37.421875 "/></g></g></g><g fill="#f8f7f4" fill-opacity="1"><g transform="translate(314.739075, 197.820061)"><g><path d="M 9.359375 -25.265625 L 18.78125 -25.265625 L 18.78125 -19.03125 L 9.359375 -19.03125 L 9.359375 -6.234375 L 21.203125 -6.234375 L 21.203125 0 L 2.5 0 L 2.5 -43.65625 L 21.203125 -43.65625 L 21.203125 -37.421875 L 9.359375 -37.421875 Z M 9.359375 -25.265625 "/></g></g></g><g fill="#f8f7f4" fill-opacity="1"><g transform="translate(98.648684, 232.361483)"><g><path d="M 5.203125 -3.78125 L 5.203125 -2.4375 C 5.203125 -1.613281 5 -0.984375 4.59375 -0.546875 C 4.195312 -0.109375 3.609375 0.109375 2.828125 0.109375 C 2.046875 0.109375 1.453125 -0.109375 1.046875 -0.546875 C 0.648438 -0.984375 0.453125 -1.613281 0.453125 -2.4375 L 0.453125 -7.71875 C 0.453125 -8.539062 0.648438 -9.171875 1.046875 -9.609375 C 1.453125 -10.046875 2.046875 -10.265625 2.828125 -10.265625 C 3.609375 -10.265625 4.195312 -10.046875 4.59375 -9.609375 C 5 -9.171875 5.203125 -8.539062 5.203125 -7.71875 L 5.203125 -6.734375 L 3.703125 -6.734375 L 3.703125 -7.8125 C 3.703125 -8.175781 3.625 -8.429688 3.46875 -8.578125 C 3.320312 -8.734375 3.125 -8.8125 2.875 -8.8125 C 2.625 -8.8125 2.421875 -8.734375 2.265625 -8.578125 C 2.117188 -8.429688 2.046875 -8.175781 2.046875 -7.8125 L 2.046875 -2.328125 C 2.046875 -1.960938 2.117188 -1.707031 2.265625 -1.5625 C 2.421875 -1.414062 2.625 -1.34375 2.875 -1.34375 C 3.125 -1.34375 3.320312 -1.414062 3.46875 -1.5625 C 3.625 -1.707031 3.703125 -1.960938 3.703125 -2.328125 L 3.703125 -3.78125 Z M 5.203125 -3.78125 "/></g></g></g><g fill="#f8f7f4" fill-opacity="1"><g transform="translate(109.203135, 232.361483)"><g><path d="M 2.046875 -2.328125 C 2.046875 -1.960938 2.117188 -1.703125 2.265625 -1.546875 C 2.421875 -1.398438 2.625 -1.328125 2.875 -1.328125 C 3.125 -1.328125 3.320312 -1.398438 3.46875 -1.546875 C 3.625 -1.703125 3.703125 -1.960938 3.703125 -2.328125 L 3.703125 -7.8125 C 3.703125 -8.175781 3.625 -8.429688 3.46875 -8.578125 C 3.320312 -8.734375 3.125 -8.8125 2.875 -8.8125 C 2.625 -8.8125 2.421875 -8.734375 2.265625 -8.578125 C 2.117188 -8.429688 2.046875 -8.175781 2.046875 -7.8125 Z M 0.453125 -7.71875 C 0.453125 -8.539062 0.660156 -9.171875 1.078125 -9.609375 C 1.492188 -10.046875 2.09375 -10.265625 2.875 -10.265625 C 3.65625 -10.265625 4.253906 -10.046875 4.671875 -9.609375 C 5.085938 -9.171875 5.296875 -8.539062 5.296875 -7.71875 L 5.296875 -2.4375 C 5.296875 -1.613281 5.085938 -0.984375 4.671875 -0.546875 C 4.253906 -0.109375 3.65625 0.109375 2.875 0.109375 C 2.09375 0.109375 1.492188 -0.109375 1.078125 -0.546875 C 0.660156 -0.984375 0.453125 -1.613281 0.453125 -2.4375 Z M 0.453125 -7.71875 "/></g></g></g><g fill="#f8f7f4" fill-opacity="1"><g transform="translate(119.902549, 232.361483)"><g><path d="M 0.375 -7.71875 C 0.375 -8.539062 0.566406 -9.171875 0.953125 -9.609375 C 1.347656 -10.046875 1.9375 -10.265625 2.71875 -10.265625 C 3.507812 -10.265625 4.097656 -10.046875 4.484375 -9.609375 C 4.878906 -9.171875 5.078125 -8.539062 5.078125 -7.71875 L 5.078125 -7.328125 L 3.5625 -7.328125 L 3.5625 -7.8125 C 3.5625 -8.175781 3.488281 -8.429688 3.34375 -8.578125 C 3.207031 -8.734375 3.015625 -8.8125 2.765625 -8.8125 C 2.515625 -8.8125 2.316406 -8.734375 2.171875 -8.578125 C 2.035156 -8.429688 1.96875 -8.175781 1.96875 -7.8125 C 1.96875 -7.46875 2.046875 -7.160156 2.203125 -6.890625 C 2.359375 -6.628906 2.550781 -6.378906 2.78125 -6.140625 C 3.007812 -5.898438 3.253906 -5.660156 3.515625 -5.421875 C 3.785156 -5.191406 4.035156 -4.9375 4.265625 -4.65625 C 4.503906 -4.375 4.703125 -4.050781 4.859375 -3.6875 C 5.015625 -3.332031 5.09375 -2.914062 5.09375 -2.4375 C 5.09375 -1.613281 4.890625 -0.984375 4.484375 -0.546875 C 4.085938 -0.109375 3.5 0.109375 2.71875 0.109375 C 1.925781 0.109375 1.328125 -0.109375 0.921875 -0.546875 C 0.523438 -0.984375 0.328125 -1.613281 0.328125 -2.4375 L 0.328125 -3.125 L 1.84375 -3.125 L 1.84375 -2.328125 C 1.84375 -1.960938 1.914062 -1.707031 2.0625 -1.5625 C 2.21875 -1.414062 2.421875 -1.34375 2.671875 -1.34375 C 2.921875 -1.34375 3.117188 -1.414062 3.265625 -1.5625 C 3.421875 -1.707031 3.5 -1.960938 3.5 -2.328125 C 3.5 -2.679688 3.421875 -2.988281 3.265625 -3.25 C 3.109375 -3.519531 2.910156 -3.769531 2.671875 -4 C 2.441406 -4.238281 2.191406 -4.476562 1.921875 -4.71875 C 1.660156 -4.957031 1.414062 -5.21875 1.1875 -5.5 C 0.957031 -5.78125 0.765625 -6.097656 0.609375 -6.453125 C 0.453125 -6.804688 0.375 -7.226562 0.375 -7.71875 Z M 0.375 -7.71875 "/></g></g></g><g fill="#f8f7f4" fill-opacity="1"><g transform="translate(130.28305, 232.361483)"><g><path d="M 3.953125 -2.9375 L 5.046875 -10.15625 L 7.265625 -10.15625 L 7.265625 0 L 5.75 0 L 5.75 -7.28125 L 4.65625 0 L 3.140625 0 L 1.953125 -7.171875 L 1.953125 0 L 0.5625 0 L 0.5625 -10.15625 L 2.78125 -10.15625 Z M 3.953125 -2.9375 "/></g></g></g><g fill="#f8f7f4" fill-opacity="1"><g transform="translate(143.084399, 232.361483)"><g><path d="M 2.171875 -5.875 L 4.359375 -5.875 L 4.359375 -4.421875 L 2.171875 -4.421875 L 2.171875 -1.453125 L 4.9375 -1.453125 L 4.9375 0 L 0.578125 0 L 0.578125 -10.15625 L 4.9375 -10.15625 L 4.9375 -8.703125 L 2.171875 -8.703125 Z M 2.171875 -5.875 "/></g></g></g><g fill="#f8f7f4" fill-opacity="1"><g transform="translate(153.377927, 232.361483)"><g><path d="M 0.140625 -10.15625 L 5.078125 -10.15625 L 5.078125 -8.703125 L 3.40625 -8.703125 L 3.40625 0 L 1.8125 0 L 1.8125 -8.703125 L 0.140625 -8.703125 Z M 0.140625 -10.15625 "/></g></g></g><g fill="#f8f7f4" fill-opacity="1"><g transform="translate(163.555489, 232.361483)"><g><path d="M 0.578125 -10.15625 L 2.171875 -10.15625 L 2.171875 0 L 0.578125 0 Z M 0.578125 -10.15625 "/></g></g></g><g fill="#f8f7f4" fill-opacity="1"><g transform="translate(171.268715, 232.361483)"><g><path d="M 5.203125 -3.78125 L 5.203125 -2.4375 C 5.203125 -1.613281 5 -0.984375 4.59375 -0.546875 C 4.195312 -0.109375 3.609375 0.109375 2.828125 0.109375 C 2.046875 0.109375 1.453125 -0.109375 1.046875 -0.546875 C 0.648438 -0.984375 0.453125 -1.613281 0.453125 -2.4375 L 0.453125 -7.71875 C 0.453125 -8.539062 0.648438 -9.171875 1.046875 -9.609375 C 1.453125 -10.046875 2.046875 -10.265625 2.828125 -10.265625 C 3.609375 -10.265625 4.195312 -10.046875 4.59375 -9.609375 C 5 -9.171875 5.203125 -8.539062 5.203125 -7.71875 L 5.203125 -6.734375 L 3.703125 -6.734375 L 3.703125 -7.8125 C 3.703125 -8.175781 3.625 -8.429688 3.46875 -8.578125 C 3.320312 -8.734375 3.125 -8.8125 2.875 -8.8125 C 2.625 -8.8125 2.421875 -8.734375 2.265625 -8.578125 C 2.117188 -8.429688 2.046875 -8.175781 2.046875 -7.8125 L 2.046875 -2.328125 C 2.046875 -1.960938 2.117188 -1.707031 2.265625 -1.5625 C 2.421875 -1.414062 2.625 -1.34375 2.875 -1.34375 C 3.125 -1.34375 3.320312 -1.414062 3.46875 -1.5625 C 3.625 -1.707031 3.703125 -1.960938 3.703125 -2.328125 L 3.703125 -3.78125 Z M 5.203125 -3.78125 "/></g></g></g><g fill="#f8f7f4" fill-opacity="1"><g transform="translate(181.823165, 232.361483)"><g><path d="M 0.375 -7.71875 C 0.375 -8.539062 0.566406 -9.171875 0.953125 -9.609375 C 1.347656 -10.046875 1.9375 -10.265625 2.71875 -10.265625 C 3.507812 -10.265625 4.097656 -10.046875 4.484375 -9.609375 C 4.878906 -9.171875 5.078125 -8.539062 5.078125 -7.71875 L 5.078125 -7.328125 L 3.5625 -7.328125 L 3.5625 -7.8125 C 3.5625 -8.175781 3.488281 -8.429688 3.34375 -8.578125 C 3.207031 -8.734375 3.015625 -8.8125 2.765625 -8.8125 C 2.515625 -8.8125 2.316406 -8.734375 2.171875 -8.578125 C 2.035156 -8.429688 1.96875 -8.175781 1.96875 -7.8125 C 1.96875 -7.46875 2.046875 -7.160156 2.203125 -6.890625 C 2.359375 -6.628906 2.550781 -6.378906 2.78125 -6.140625 C 3.007812 -5.898438 3.253906 -5.660156 3.515625 -5.421875 C 3.785156 -5.191406 4.035156 -4.9375 4.265625 -4.65625 C 4.503906 -4.375 4.703125 -4.050781 4.859375 -3.6875 C 5.015625 -3.332031 5.09375 -2.914062 5.09375 -2.4375 C 5.09375 -1.613281 4.890625 -0.984375 4.484375 -0.546875 C 4.085938 -0.109375 3.5 0.109375 2.71875 0.109375 C 1.925781 0.109375 1.328125 -0.109375 0.921875 -0.546875 C 0.523438 -0.984375 0.328125 -1.613281 0.328125 -2.4375 L 0.328125 -3.125 L 1.84375 -3.125 L 1.84375 -2.328125 C 1.84375 -1.960938 1.914062 -1.707031 2.0625 -1.5625 C 2.21875 -1.414062 2.421875 -1.34375 2.671875 -1.34375 C 2.921875 -1.34375 3.117188 -1.414062 3.265625 -1.5625 C 3.421875 -1.707031 3.5 -1.960938 3.5 -2.328125 C 3.5 -2.679688 3.421875 -2.988281 3.265625 -3.25 C 3.109375 -3.519531 2.910156 -3.769531 2.671875 -4 C 2.441406 -4.238281 2.191406 -4.476562 1.921875 -4.71875 C 1.660156 -4.957031 1.414062 -5.21875 1.1875 -5.5 C 0.957031 -5.78125 0.765625 -6.097656 0.609375 -6.453125 C 0.453125 -6.804688 0.375 -7.226562 0.375 -7.71875 Z M 0.375 -7.71875 "/></g></g></g><g fill="#f8f7f4" fill-opacity="1"><g transform="translate(192.203665, 232.361483)"><g/></g></g><g fill="#f8f7f4" fill-opacity="1"><g transform="translate(199.409534, 232.361483)"><g><path d="M 2.984375 -10.15625 C 3.816406 -10.15625 4.414062 -9.957031 4.78125 -9.5625 C 5.15625 -9.175781 5.34375 -8.59375 5.34375 -7.8125 L 5.34375 -7.453125 C 5.34375 -6.929688 5.257812 -6.5 5.09375 -6.15625 C 4.9375 -5.820312 4.679688 -5.570312 4.328125 -5.40625 C 4.753906 -5.238281 5.054688 -4.96875 5.234375 -4.59375 C 5.421875 -4.226562 5.515625 -3.773438 5.515625 -3.234375 L 5.515625 -2.40625 C 5.515625 -1.625 5.3125 -1.023438 4.90625 -0.609375 C 4.5 -0.203125 3.894531 0 3.09375 0 L 0.578125 0 L 0.578125 -10.15625 Z M 2.171875 -4.5625 L 2.171875 -1.453125 L 3.09375 -1.453125 C 3.363281 -1.453125 3.566406 -1.523438 3.703125 -1.671875 C 3.847656 -1.816406 3.921875 -2.078125 3.921875 -2.453125 L 3.921875 -3.328125 C 3.921875 -3.804688 3.835938 -4.128906 3.671875 -4.296875 C 3.515625 -4.472656 3.253906 -4.5625 2.890625 -4.5625 Z M 2.171875 -8.703125 L 2.171875 -6.015625 L 2.796875 -6.015625 C 3.097656 -6.015625 3.332031 -6.09375 3.5 -6.25 C 3.664062 -6.40625 3.75 -6.6875 3.75 -7.09375 L 3.75 -7.65625 C 3.75 -8.019531 3.679688 -8.285156 3.546875 -8.453125 C 3.421875 -8.617188 3.21875 -8.703125 2.9375 -8.703125 Z M 2.171875 -8.703125 "/></g></g></g><g fill="#f8f7f4" fill-opacity="1"><g transform="translate(210.253909, 232.361483)"><g><path d="M 2.046875 -2.328125 C 2.046875 -1.960938 2.117188 -1.703125 2.265625 -1.546875 C 2.421875 -1.398438 2.625 -1.328125 2.875 -1.328125 C 3.125 -1.328125 3.320312 -1.398438 3.46875 -1.546875 C 3.625 -1.703125 3.703125 -1.960938 3.703125 -2.328125 L 3.703125 -7.8125 C 3.703125 -8.175781 3.625 -8.429688 3.46875 -8.578125 C 3.320312 -8.734375 3.125 -8.8125 2.875 -8.8125 C 2.625 -8.8125 2.421875 -8.734375 2.265625 -8.578125 C 2.117188 -8.429688 2.046875 -8.175781 2.046875 -7.8125 Z M 0.453125 -7.71875 C 0.453125 -8.539062 0.660156 -9.171875 1.078125 -9.609375 C 1.492188 -10.046875 2.09375 -10.265625 2.875 -10.265625 C 3.65625 -10.265625 4.253906 -10.046875 4.671875 -9.609375 C 5.085938 -9.171875 5.296875 -8.539062 5.296875 -7.71875 L 5.296875 -2.4375 C 5.296875 -1.613281 5.085938 -0.984375 4.671875 -0.546875 C 4.253906 -0.109375 3.65625 0.109375 2.875 0.109375 C 2.09375 0.109375 1.492188 -0.109375 1.078125 -0.546875 C 0.660156 -0.984375 0.453125 -1.613281 0.453125 -2.4375 Z M 0.453125 -7.71875 "/></g></g></g><g fill="#f8f7f4" fill-opacity="1"><g transform="translate(220.953322, 232.361483)"><g><path d="M 2.109375 -10.15625 L 2.109375 -2.3125 C 2.109375 -1.945312 2.179688 -1.691406 2.328125 -1.546875 C 2.472656 -1.398438 2.671875 -1.328125 2.921875 -1.328125 C 3.179688 -1.328125 3.382812 -1.398438 3.53125 -1.546875 C 3.675781 -1.691406 3.75 -1.945312 3.75 -2.3125 L 3.75 -10.15625 L 5.265625 -10.15625 L 5.265625 -2.421875 C 5.265625 -1.597656 5.0625 -0.96875 4.65625 -0.53125 C 4.257812 -0.09375 3.671875 0.125 2.890625 0.125 C 2.109375 0.125 1.515625 -0.09375 1.109375 -0.53125 C 0.703125 -0.96875 0.5 -1.597656 0.5 -2.421875 L 0.5 -10.15625 Z M 2.109375 -10.15625 "/></g></g></g><g fill="#f8f7f4" fill-opacity="1"><g transform="translate(231.681734, 232.361483)"><g><path d="M 0.140625 -10.15625 L 5.078125 -10.15625 L 5.078125 -8.703125 L 3.40625 -8.703125 L 3.40625 0 L 1.8125 0 L 1.8125 -8.703125 L 0.140625 -8.703125 Z M 0.140625 -10.15625 "/></g></g></g><g fill="#f8f7f4" fill-opacity="1"><g transform="translate(241.859296, 232.361483)"><g><path d="M 0.578125 -10.15625 L 2.171875 -10.15625 L 2.171875 0 L 0.578125 0 Z M 0.578125 -10.15625 "/></g></g></g><g fill="#f8f7f4" fill-opacity="1"><g transform="translate(249.572521, 232.361483)"><g><path d="M 0.453125 -7.71875 C 0.453125 -8.539062 0.660156 -9.171875 1.078125 -9.609375 C 1.492188 -10.046875 2.09375 -10.265625 2.875 -10.265625 C 3.65625 -10.265625 4.253906 -10.046875 4.671875 -9.609375 C 5.085938 -9.171875 5.296875 -8.539062 5.296875 -7.71875 L 5.296875 -2.4375 C 5.296875 -1.863281 5.191406 -1.390625 4.984375 -1.015625 C 5.023438 -0.921875 5.078125 -0.859375 5.140625 -0.828125 C 5.203125 -0.804688 5.300781 -0.796875 5.4375 -0.796875 L 5.578125 -0.796875 L 5.578125 0.625 L 5.359375 0.625 C 5.003906 0.625 4.710938 0.5625 4.484375 0.4375 C 4.253906 0.320312 4.085938 0.148438 3.984375 -0.078125 C 3.816406 -0.015625 3.640625 0.03125 3.453125 0.0625 C 3.273438 0.09375 3.082031 0.109375 2.875 0.109375 C 2.09375 0.109375 1.492188 -0.109375 1.078125 -0.546875 C 0.660156 -0.984375 0.453125 -1.613281 0.453125 -2.4375 Z M 2.046875 -2.328125 C 2.046875 -1.960938 2.117188 -1.703125 2.265625 -1.546875 C 2.421875 -1.398438 2.625 -1.328125 2.875 -1.328125 C 3.125 -1.328125 3.320312 -1.398438 3.46875 -1.546875 C 3.625 -1.703125 3.703125 -1.960938 3.703125 -2.328125 L 3.703125 -7.8125 C 3.703125 -8.175781 3.625 -8.429688 3.46875 -8.578125 C 3.320312 -8.734375 3.125 -8.8125 2.875 -8.8125 C 2.625 -8.8125 2.421875 -8.734375 2.265625 -8.578125 C 2.117188 -8.429688 2.046875 -8.175781 2.046875 -7.8125 Z M 2.046875 -2.328125 "/></g></g></g><g fill="#f8f7f4" fill-opacity="1"><g transform="translate(260.271934, 232.361483)"><g><path d="M 2.109375 -10.15625 L 2.109375 -2.3125 C 2.109375 -1.945312 2.179688 -1.691406 2.328125 -1.546875 C 2.472656 -1.398438 2.671875 -1.328125 2.921875 -1.328125 C 3.179688 -1.328125 3.382812 -1.398438 3.53125 -1.546875 C 3.675781 -1.691406 3.75 -1.945312 3.75 -2.3125 L 3.75 -10.15625 L 5.265625 -10.15625 L 5.265625 -2.421875 C 5.265625 -1.597656 5.0625 -0.96875 4.65625 -0.53125 C 4.257812 -0.09375 3.671875 0.125 2.890625 0.125 C 2.109375 0.125 1.515625 -0.09375 1.109375 -0.53125 C 0.703125 -0.96875 0.5 -1.597656 0.5 -2.421875 L 0.5 -10.15625 Z M 2.109375 -10.15625 "/></g></g></g><g fill="#f8f7f4" fill-opacity="1"><g transform="translate(271.000346, 232.361483)"><g><path d="M 2.171875 -5.875 L 4.359375 -5.875 L 4.359375 -4.421875 L 2.171875 -4.421875 L 2.171875 -1.453125 L 4.9375 -1.453125 L 4.9375 0 L 0.578125 0 L 0.578125 -10.15625 L 4.9375 -10.15625 L 4.9375 -8.703125 L 2.171875 -8.703125 Z M 2.171875 -5.875 "/></g></g></g></svg>