<svg xmlns="http://www.w3.org/2000/svg" xmlns:xlink="http://www.w3.org/1999/xlink" width="500" zoomAndPan="magnify" viewBox="0 0 375 374.999991" height="500" preserveAspectRatio="xMidYMid meet" version="1.0"><defs><g/><clipPath id="db8495586c"><path d="M 76.777344 73 L 298.027344 73 L 298.027344 302 L 76.777344 302 Z M 76.777344 73 " clip-rule="nonzero"/></clipPath></defs><g clip-path="url(#db8495586c)"><path fill="#e8d6d6" d="M 159.589844 76.703125 C 161.382812 76.253906 163.183594 75.847656 164.996094 75.484375 C 166.808594 75.121094 168.628906 74.804688 170.453125 74.53125 C 172.28125 74.257812 174.113281 74.027344 175.953125 73.84375 C 177.792969 73.65625 179.632812 73.519531 181.480469 73.421875 C 183.324219 73.328125 185.171875 73.277344 187.019531 73.273438 C 188.867188 73.265625 190.714844 73.308594 192.558594 73.390625 C 194.40625 73.476562 196.246094 73.605469 198.085938 73.78125 C 199.925781 73.953125 201.761719 74.171875 203.589844 74.4375 C 205.417969 74.699219 207.238281 75.007812 209.054688 75.359375 C 210.867188 75.710938 212.671875 76.105469 214.46875 76.546875 C 216.261719 76.984375 218.046875 77.46875 219.816406 77.996094 C 221.585938 78.519531 223.34375 79.089844 225.089844 79.703125 C 226.832031 80.3125 228.558594 80.96875 230.273438 81.664062 C 231.984375 82.359375 233.679688 83.097656 235.355469 83.875 C 237.03125 84.652344 238.6875 85.472656 240.324219 86.332031 C 241.960938 87.191406 243.574219 88.089844 245.167969 89.023438 C 246.761719 89.960938 248.328125 90.9375 249.875 91.953125 C 251.421875 92.964844 252.941406 94.015625 254.433594 95.105469 C 255.929688 96.191406 257.398438 97.316406 258.835938 98.472656 C 260.277344 99.632812 261.6875 100.824219 263.070312 102.054688 C 264.453125 103.28125 265.804688 104.542969 267.125 105.835938 C 268.445312 107.128906 269.734375 108.453125 270.988281 109.808594 C 272.246094 111.164062 273.46875 112.550781 274.65625 113.964844 C 275.847656 115.382812 277 116.824219 278.121094 118.296875 C 279.238281 119.769531 280.324219 121.265625 281.371094 122.789062 C 282.414062 124.3125 283.425781 125.863281 284.394531 127.4375 C 285.367188 129.007812 286.300781 130.605469 287.191406 132.222656 C 288.085938 133.84375 288.941406 135.480469 289.753906 137.140625 C 290.570312 138.800781 291.34375 140.480469 292.074219 142.179688 C 292.808594 143.878906 293.5 145.59375 294.148438 147.324219 C 294.796875 149.054688 295.40625 150.800781 295.96875 152.5625 C 296.535156 154.324219 297.054688 156.097656 297.535156 157.882812 C 297.710938 158.542969 297.886719 159.214844 298.054688 159.898438 L 296.308594 160.507812 C 296.132812 159.789062 295.949219 159.074219 295.757812 158.355469 C 295.28125 156.585938 294.765625 154.828125 294.207031 153.082031 C 293.644531 151.339844 293.042969 149.609375 292.398438 147.890625 C 291.753906 146.175781 291.070312 144.476562 290.339844 142.796875 C 289.613281 141.113281 288.84375 139.449219 288.035156 137.804688 C 287.226562 136.160156 286.378906 134.539062 285.488281 132.933594 C 284.601562 131.332031 283.675781 129.75 282.707031 128.195312 C 281.742188 126.636719 280.738281 125.105469 279.699219 123.59375 C 278.660156 122.085938 277.582031 120.605469 276.46875 119.148438 C 275.355469 117.695312 274.207031 116.265625 273.023438 114.867188 C 271.839844 113.46875 270.625 112.097656 269.375 110.757812 C 268.125 109.421875 266.84375 108.113281 265.527344 106.835938 C 264.214844 105.558594 262.871094 104.316406 261.496094 103.105469 C 260.121094 101.894531 258.714844 100.714844 257.285156 99.574219 C 255.851562 98.433594 254.390625 97.324219 252.90625 96.253906 C 251.417969 95.183594 249.90625 94.152344 248.371094 93.15625 C 246.832031 92.160156 245.273438 91.199219 243.6875 90.28125 C 242.105469 89.359375 240.5 88.480469 238.871094 87.636719 C 237.242188 86.796875 235.597656 85.996094 233.929688 85.234375 C 232.265625 84.476562 230.582031 83.753906 228.878906 83.078125 C 227.179688 82.398438 225.460938 81.765625 223.730469 81.167969 C 221.996094 80.574219 220.25 80.023438 218.492188 79.515625 C 216.730469 79.007812 214.960938 78.542969 213.179688 78.121094 C 211.394531 77.699219 209.605469 77.324219 207.804688 76.988281 C 206.003906 76.65625 204.195312 76.367188 202.378906 76.121094 C 200.566406 75.875 198.746094 75.675781 196.921875 75.519531 C 195.09375 75.363281 193.269531 75.25 191.4375 75.183594 C 189.609375 75.117188 187.777344 75.097656 185.945312 75.121094 C 184.113281 75.144531 182.285156 75.210938 180.457031 75.324219 C 178.628906 75.4375 176.804688 75.59375 174.984375 75.796875 C 173.164062 76 171.351562 76.246094 169.542969 76.539062 C 167.734375 76.828125 165.933594 77.164062 164.144531 77.542969 C 162.351562 77.925781 160.570312 78.347656 158.800781 78.8125 C 159.074219 78.117188 159.34375 77.421875 159.589844 76.707031 Z M 78.523438 214.738281 C 78.671875 215.324219 78.816406 215.910156 78.976562 216.496094 C 79.453125 218.273438 79.96875 220.035156 80.53125 221.785156 C 81.09375 223.535156 81.699219 225.269531 82.34375 226.988281 C 82.992188 228.707031 83.679688 230.410156 84.410156 232.097656 C 85.140625 233.78125 85.910156 235.449219 86.722656 237.097656 C 87.535156 238.746094 88.386719 240.375 89.277344 241.980469 C 90.171875 243.585938 91.101562 245.167969 92.070312 246.730469 C 93.039062 248.289062 94.046875 249.828125 95.089844 251.335938 C 96.136719 252.847656 97.21875 254.332031 98.335938 255.789062 C 99.453125 257.25 100.605469 258.679688 101.792969 260.078125 C 102.980469 261.480469 104.199219 262.851562 105.457031 264.195312 C 106.710938 265.535156 107.996094 266.84375 109.316406 268.125 C 110.636719 269.402344 111.984375 270.648438 113.367188 271.859375 C 114.746094 273.070312 116.15625 274.246094 117.59375 275.390625 C 119.03125 276.53125 120.496094 277.640625 121.988281 278.710938 C 123.480469 279.78125 124.996094 280.8125 126.539062 281.808594 C 128.082031 282.804688 129.648438 283.765625 131.238281 284.683594 C 132.828125 285.601562 134.441406 286.480469 136.074219 287.320312 C 137.707031 288.164062 139.359375 288.960938 141.03125 289.71875 C 142.703125 290.480469 144.390625 291.195312 146.101562 291.871094 C 147.808594 292.546875 149.53125 293.183594 151.269531 293.773438 C 153.007812 294.363281 154.757812 294.914062 156.523438 295.417969 C 158.289062 295.921875 160.066406 296.382812 161.851562 296.800781 C 163.640625 297.21875 165.4375 297.59375 167.246094 297.921875 C 169.050781 298.253906 170.863281 298.539062 172.683594 298.777344 C 174.503906 299.019531 176.328125 299.214844 178.160156 299.367188 C 179.988281 299.515625 181.820312 299.621094 183.65625 299.683594 C 185.492188 299.742188 187.328125 299.757812 189.164062 299.730469 C 190.996094 299.699219 192.832031 299.625 194.664062 299.507812 C 196.496094 299.386719 198.324219 299.222656 200.148438 299.015625 C 201.972656 298.804688 203.789062 298.550781 205.601562 298.253906 C 207.414062 297.953125 209.214844 297.613281 211.011719 297.222656 C 212.804688 296.835938 214.589844 296.40625 216.363281 295.929688 C 216.078125 296.628906 215.800781 297.332031 215.542969 298.042969 C 213.75 298.5 211.945312 298.914062 210.128906 299.28125 C 208.316406 299.652344 206.492188 299.976562 204.660156 300.257812 C 202.832031 300.539062 200.996094 300.773438 199.152344 300.964844 C 197.308594 301.15625 195.464844 301.304688 193.613281 301.40625 C 191.765625 301.507812 189.914062 301.5625 188.0625 301.574219 C 186.210938 301.585938 184.359375 301.550781 182.511719 301.46875 C 180.660156 301.390625 178.8125 301.265625 176.96875 301.097656 C 175.125 300.929688 173.285156 300.714844 171.449219 300.457031 C 169.617188 300.195312 167.789062 299.894531 165.972656 299.546875 C 164.152344 299.199219 162.34375 298.804688 160.542969 298.371094 C 158.742188 297.933594 156.953125 297.453125 155.179688 296.929688 C 153.402344 296.40625 151.636719 295.839844 149.890625 295.230469 C 148.140625 294.621094 146.40625 293.96875 144.691406 293.277344 C 142.972656 292.582031 141.273438 291.847656 139.589844 291.070312 C 137.910156 290.292969 136.246094 289.476562 134.605469 288.621094 C 132.964844 287.761719 131.34375 286.863281 129.746094 285.929688 C 128.148438 284.992188 126.574219 284.015625 125.023438 283.003906 C 123.472656 281.992188 121.945312 280.941406 120.445312 279.851562 C 118.945312 278.765625 117.472656 277.640625 116.03125 276.480469 C 114.585938 275.324219 113.167969 274.128906 111.78125 272.898438 C 110.394531 271.671875 109.039062 270.410156 107.714844 269.117188 C 106.386719 267.820312 105.09375 266.496094 103.832031 265.136719 C 102.570312 263.78125 101.34375 262.390625 100.152344 260.976562 C 98.957031 259.558594 97.800781 258.113281 96.675781 256.636719 C 95.554688 255.164062 94.464844 253.664062 93.417969 252.136719 C 92.367188 250.609375 91.355469 249.058594 90.378906 247.480469 C 89.40625 245.90625 88.46875 244.308594 87.570312 242.683594 C 86.675781 241.0625 85.820312 239.421875 85 237.757812 C 84.183594 236.09375 83.410156 234.410156 82.671875 232.710938 C 81.9375 231.007812 81.246094 229.289062 80.59375 227.554688 C 79.941406 225.820312 79.332031 224.070312 78.765625 222.304688 C 78.203125 220.539062 77.679688 218.761719 77.199219 216.972656 C 77.054688 216.433594 76.917969 215.890625 76.777344 215.351562 Z M 78.523438 214.738281 " fill-opacity="1" fill-rule="evenodd"/></g><g fill="#e8d6d6" fill-opacity="1"><g transform="translate(86.189058, 186.745886)"><g><path d="M 10.296875 -11.765625 C 8.941406 -12.515625 7.765625 -12.890625 6.765625 -12.890625 C 6.097656 -12.890625 5.578125 -12.753906 5.203125 -12.484375 C 4.828125 -12.222656 4.640625 -11.820312 4.640625 -11.28125 C 4.640625 -10.789062 4.910156 -10.359375 5.453125 -9.984375 C 5.992188 -9.609375 6.710938 -9.253906 7.609375 -8.921875 C 8.347656 -8.648438 8.972656 -8.34375 9.484375 -8 C 10.003906 -7.65625 10.4375 -7.179688 10.78125 -6.578125 C 11.132812 -5.972656 11.3125 -5.207031 11.3125 -4.28125 C 11.3125 -3.476562 11.101562 -2.734375 10.6875 -2.046875 C 10.269531 -1.367188 9.660156 -0.828125 8.859375 -0.421875 C 8.054688 -0.0234375 7.097656 0.171875 5.984375 0.171875 C 5.054688 0.171875 4.132812 0.0351562 3.21875 -0.234375 C 2.3125 -0.515625 1.460938 -0.9375 0.671875 -1.5 L 2.03125 -3.875 C 2.5625 -3.488281 3.171875 -3.164062 3.859375 -2.90625 C 4.546875 -2.65625 5.164062 -2.53125 5.71875 -2.53125 C 6.363281 -2.53125 6.925781 -2.664062 7.40625 -2.9375 C 7.882812 -3.21875 8.125 -3.664062 8.125 -4.28125 C 8.125 -5.082031 7.367188 -5.78125 5.859375 -6.375 C 4.972656 -6.71875 4.234375 -7.050781 3.640625 -7.375 C 3.054688 -7.707031 2.550781 -8.175781 2.125 -8.78125 C 1.695312 -9.382812 1.484375 -10.140625 1.484375 -11.046875 C 1.484375 -12.390625 1.921875 -13.46875 2.796875 -14.28125 C 3.671875 -15.09375 4.84375 -15.535156 6.3125 -15.609375 C 7.457031 -15.609375 8.414062 -15.476562 9.1875 -15.21875 C 9.96875 -14.957031 10.722656 -14.585938 11.453125 -14.109375 Z M 10.296875 -11.765625 "/></g></g></g><g fill="#e8d6d6" fill-opacity="1"><g transform="translate(115.354971, 186.745886)"><g><path d="M 1.0625 -7.734375 C 1.0625 -9.140625 1.414062 -10.453125 2.125 -11.671875 C 2.832031 -12.898438 3.789062 -13.875 5 -14.59375 C 6.21875 -15.320312 7.539062 -15.6875 8.96875 -15.6875 C 10.382812 -15.6875 11.703125 -15.320312 12.921875 -14.59375 C 14.140625 -13.875 15.109375 -12.898438 15.828125 -11.671875 C 16.554688 -10.453125 16.921875 -9.140625 16.921875 -7.734375 C 16.921875 -6.304688 16.554688 -4.988281 15.828125 -3.78125 C 15.109375 -2.570312 14.140625 -1.609375 12.921875 -0.890625 C 11.703125 -0.179688 10.382812 0.171875 8.96875 0.171875 C 7.53125 0.171875 6.207031 -0.179688 5 -0.890625 C 3.789062 -1.609375 2.832031 -2.570312 2.125 -3.78125 C 1.414062 -4.988281 1.0625 -6.304688 1.0625 -7.734375 Z M 4.21875 -7.734375 C 4.21875 -6.835938 4.429688 -6.007812 4.859375 -5.25 C 5.285156 -4.488281 5.867188 -3.882812 6.609375 -3.4375 C 7.347656 -3 8.171875 -2.78125 9.078125 -2.78125 C 9.941406 -2.78125 10.734375 -3 11.453125 -3.4375 C 12.171875 -3.882812 12.734375 -4.484375 13.140625 -5.234375 C 13.546875 -5.992188 13.75 -6.828125 13.75 -7.734375 C 13.75 -8.671875 13.535156 -9.515625 13.109375 -10.265625 C 12.691406 -11.023438 12.117188 -11.625 11.390625 -12.0625 C 10.671875 -12.507812 9.867188 -12.734375 8.984375 -12.734375 C 8.097656 -12.734375 7.289062 -12.507812 6.5625 -12.0625 C 5.84375 -11.625 5.269531 -11.023438 4.84375 -10.265625 C 4.425781 -9.515625 4.21875 -8.671875 4.21875 -7.734375 Z M 4.21875 -7.734375 "/></g></g></g><g fill="#e8d6d6" fill-opacity="1"><g transform="translate(150.191934, 186.745886)"><g><path d="M 10.296875 -11.765625 C 8.941406 -12.515625 7.765625 -12.890625 6.765625 -12.890625 C 6.097656 -12.890625 5.578125 -12.753906 5.203125 -12.484375 C 4.828125 -12.222656 4.640625 -11.820312 4.640625 -11.28125 C 4.640625 -10.789062 4.910156 -10.359375 5.453125 -9.984375 C 5.992188 -9.609375 6.710938 -9.253906 7.609375 -8.921875 C 8.347656 -8.648438 8.972656 -8.34375 9.484375 -8 C 10.003906 -7.65625 10.4375 -7.179688 10.78125 -6.578125 C 11.132812 -5.972656 11.3125 -5.207031 11.3125 -4.28125 C 11.3125 -3.476562 11.101562 -2.734375 10.6875 -2.046875 C 10.269531 -1.367188 9.660156 -0.828125 8.859375 -0.421875 C 8.054688 -0.0234375 7.097656 0.171875 5.984375 0.171875 C 5.054688 0.171875 4.132812 0.0351562 3.21875 -0.234375 C 2.3125 -0.515625 1.460938 -0.9375 0.671875 -1.5 L 2.03125 -3.875 C 2.5625 -3.488281 3.171875 -3.164062 3.859375 -2.90625 C 4.546875 -2.65625 5.164062 -2.53125 5.71875 -2.53125 C 6.363281 -2.53125 6.925781 -2.664062 7.40625 -2.9375 C 7.882812 -3.21875 8.125 -3.664062 8.125 -4.28125 C 8.125 -5.082031 7.367188 -5.78125 5.859375 -6.375 C 4.972656 -6.71875 4.234375 -7.050781 3.640625 -7.375 C 3.054688 -7.707031 2.550781 -8.175781 2.125 -8.78125 C 1.695312 -9.382812 1.484375 -10.140625 1.484375 -11.046875 C 1.484375 -12.390625 1.921875 -13.46875 2.796875 -14.28125 C 3.671875 -15.09375 4.84375 -15.535156 6.3125 -15.609375 C 7.457031 -15.609375 8.414062 -15.476562 9.1875 -15.21875 C 9.96875 -14.957031 10.722656 -14.585938 11.453125 -14.109375 Z M 10.296875 -11.765625 "/></g></g></g><g fill="#e8d6d6" fill-opacity="1"><g transform="translate(179.357846, 186.745886)"><g><path d="M 11.40625 -15.53125 L 11.40625 -12.578125 L 7.640625 -12.578125 L 7.640625 0 L 4.578125 0 L 4.578125 -12.578125 L 0.953125 -12.578125 L 0.953125 -15.53125 Z M 11.40625 -15.53125 "/></g></g></g><g fill="#e8d6d6" fill-opacity="1"><g transform="translate(208.58701, 186.745886)"><g><path d="M 1.0625 -7.734375 C 1.0625 -9.140625 1.414062 -10.453125 2.125 -11.671875 C 2.832031 -12.898438 3.789062 -13.875 5 -14.59375 C 6.21875 -15.320312 7.539062 -15.6875 8.96875 -15.6875 C 10.382812 -15.6875 11.703125 -15.320312 12.921875 -14.59375 C 14.140625 -13.875 15.109375 -12.898438 15.828125 -11.671875 C 16.554688 -10.453125 16.921875 -9.140625 16.921875 -7.734375 C 16.921875 -6.304688 16.554688 -4.988281 15.828125 -3.78125 C 15.109375 -2.570312 14.140625 -1.609375 12.921875 -0.890625 C 11.703125 -0.179688 10.382812 0.171875 8.96875 0.171875 C 7.53125 0.171875 6.207031 -0.179688 5 -0.890625 C 3.789062 -1.609375 2.832031 -2.570312 2.125 -3.78125 C 1.414062 -4.988281 1.0625 -6.304688 1.0625 -7.734375 Z M 4.21875 -7.734375 C 4.21875 -6.835938 4.429688 -6.007812 4.859375 -5.25 C 5.285156 -4.488281 5.867188 -3.882812 6.609375 -3.4375 C 7.347656 -3 8.171875 -2.78125 9.078125 -2.78125 C 9.941406 -2.78125 10.734375 -3 11.453125 -3.4375 C 12.171875 -3.882812 12.734375 -4.484375 13.140625 -5.234375 C 13.546875 -5.992188 13.75 -6.828125 13.75 -7.734375 C 13.75 -8.671875 13.535156 -9.515625 13.109375 -10.265625 C 12.691406 -11.023438 12.117188 -11.625 11.390625 -12.0625 C 10.671875 -12.507812 9.867188 -12.734375 8.984375 -12.734375 C 8.097656 -12.734375 7.289062 -12.507812 6.5625 -12.0625 C 5.84375 -11.625 5.269531 -11.023438 4.84375 -10.265625 C 4.425781 -9.515625 4.21875 -8.671875 4.21875 -7.734375 Z M 4.21875 -7.734375 "/></g></g></g><g fill="#e8d6d6" fill-opacity="1"><g transform="translate(243.423979, 186.745886)"><g><path d="M 10.375 0 L 7.109375 -4.9375 L 5.0625 -4.9375 L 5.0625 0 L 2 0 L 2 -15.53125 L 6.703125 -15.53125 C 8.628906 -15.53125 10.125 -15.0625 11.1875 -14.125 C 12.25 -13.1875 12.78125 -11.910156 12.78125 -10.296875 C 12.78125 -9.335938 12.578125 -8.4375 12.171875 -7.59375 C 11.773438 -6.757812 11.164062 -6.101562 10.34375 -5.625 L 13.9375 0 Z M 5.0625 -7.890625 L 7.234375 -7.890625 C 8.066406 -7.890625 8.671875 -8.128906 9.046875 -8.609375 C 9.429688 -9.097656 9.625 -9.625 9.625 -10.1875 C 9.625 -10.75 9.460938 -11.285156 9.140625 -11.796875 C 8.816406 -12.316406 8.1875 -12.578125 7.25 -12.578125 L 5.0625 -12.578125 Z M 5.0625 -7.890625 "/></g></g></g><g fill="#e8d6d6" fill-opacity="1"><g transform="translate(274.761334, 186.745886)"><g><path d="M 12.59375 -15.53125 L 12.59375 -12.578125 L 5.0625 -12.578125 L 5.0625 -9.265625 L 11.734375 -9.265625 L 11.734375 -6.3125 L 5.0625 -6.3125 L 5.0625 -2.953125 L 12.890625 -2.953125 L 12.890625 0 L 2 0 L 2 -15.53125 Z M 12.59375 -15.53125 "/></g></g></g><g fill="#e8d6d6" fill-opacity="1"><g transform="translate(137.291925, 226.574878)"><g><path d="M 7.0625 -0.625 C 6.820312 -0.457031 6.492188 -0.296875 6.078125 -0.140625 C 5.660156 0.015625 5.207031 0.09375 4.71875 0.09375 C 3.882812 0.09375 3.15625 -0.0859375 2.53125 -0.453125 C 1.914062 -0.816406 1.441406 -1.304688 1.109375 -1.921875 C 0.773438 -2.535156 0.609375 -3.210938 0.609375 -3.953125 C 0.609375 -4.753906 0.773438 -5.46875 1.109375 -6.09375 C 1.441406 -6.726562 1.90625 -7.222656 2.5 -7.578125 C 3.101562 -7.941406 3.789062 -8.125 4.5625 -8.125 C 5.03125 -8.125 5.460938 -8.0625 5.859375 -7.9375 C 6.265625 -7.8125 6.617188 -7.648438 6.921875 -7.453125 L 6.421875 -6.25 C 5.828125 -6.675781 5.21875 -6.890625 4.59375 -6.890625 C 4.125 -6.890625 3.6875 -6.757812 3.28125 -6.5 C 2.875 -6.25 2.546875 -5.90625 2.296875 -5.46875 C 2.054688 -5.03125 1.9375 -4.550781 1.9375 -4.03125 C 1.9375 -3.476562 2.046875 -2.984375 2.265625 -2.546875 C 2.492188 -2.109375 2.816406 -1.765625 3.234375 -1.515625 C 3.648438 -1.265625 4.128906 -1.140625 4.671875 -1.140625 C 5.066406 -1.140625 5.421875 -1.195312 5.734375 -1.3125 C 6.046875 -1.4375 6.304688 -1.59375 6.515625 -1.78125 Z M 7.0625 -0.625 "/></g></g></g><g fill="#e8d6d6" fill-opacity="1"><g transform="translate(149.371172, 226.574878)"><g><path d="M 0.609375 -4 C 0.609375 -4.738281 0.789062 -5.421875 1.15625 -6.046875 C 1.519531 -6.679688 2.015625 -7.1875 2.640625 -7.5625 C 3.273438 -7.9375 3.960938 -8.125 4.703125 -8.125 C 5.441406 -8.125 6.125 -7.9375 6.75 -7.5625 C 7.382812 -7.1875 7.890625 -6.679688 8.265625 -6.046875 C 8.640625 -5.410156 8.828125 -4.726562 8.828125 -4 C 8.828125 -3.257812 8.640625 -2.578125 8.265625 -1.953125 C 7.890625 -1.328125 7.382812 -0.828125 6.75 -0.453125 C 6.125 -0.0859375 5.441406 0.09375 4.703125 0.09375 C 3.960938 0.09375 3.273438 -0.0859375 2.640625 -0.453125 C 2.015625 -0.816406 1.519531 -1.3125 1.15625 -1.9375 C 0.789062 -2.5625 0.609375 -3.25 0.609375 -4 Z M 1.9375 -4 C 1.9375 -3.476562 2.0625 -3 2.3125 -2.5625 C 2.5625 -2.132812 2.898438 -1.789062 3.328125 -1.53125 C 3.753906 -1.269531 4.226562 -1.140625 4.75 -1.140625 C 5.25 -1.140625 5.707031 -1.265625 6.125 -1.515625 C 6.550781 -1.773438 6.882812 -2.125 7.125 -2.5625 C 7.375 -3 7.5 -3.476562 7.5 -4 C 7.5 -4.519531 7.375 -5 7.125 -5.4375 C 6.875 -5.882812 6.535156 -6.238281 6.109375 -6.5 C 5.679688 -6.757812 5.210938 -6.890625 4.703125 -6.890625 C 4.191406 -6.890625 3.722656 -6.757812 3.296875 -6.5 C 2.878906 -6.238281 2.546875 -5.882812 2.296875 -5.4375 C 2.054688 -5 1.9375 -4.519531 1.9375 -4 Z M 1.9375 -4 "/></g></g></g><g fill="#e8d6d6" fill-opacity="1"><g transform="translate(163.215429, 226.574878)"><g><path d="M 5.3125 -6.390625 C 4.625 -6.753906 4.007812 -6.9375 3.46875 -6.9375 C 3.070312 -6.9375 2.757812 -6.847656 2.53125 -6.671875 C 2.300781 -6.492188 2.1875 -6.253906 2.1875 -5.953125 C 2.1875 -5.648438 2.332031 -5.394531 2.625 -5.1875 C 2.914062 -4.988281 3.320312 -4.789062 3.84375 -4.59375 C 4.238281 -4.445312 4.578125 -4.285156 4.859375 -4.109375 C 5.140625 -3.929688 5.367188 -3.6875 5.546875 -3.375 C 5.734375 -3.0625 5.828125 -2.671875 5.828125 -2.203125 C 5.828125 -1.773438 5.722656 -1.390625 5.515625 -1.046875 C 5.304688 -0.703125 5 -0.425781 4.59375 -0.21875 C 4.1875 -0.0078125 3.707031 0.09375 3.15625 0.09375 C 2.664062 0.09375 2.1875 0.0195312 1.71875 -0.125 C 1.25 -0.28125 0.832031 -0.492188 0.46875 -0.765625 L 1.03125 -1.765625 C 1.300781 -1.554688 1.625 -1.382812 2 -1.25 C 2.375 -1.113281 2.71875 -1.046875 3.03125 -1.046875 C 3.425781 -1.046875 3.769531 -1.140625 4.0625 -1.328125 C 4.351562 -1.515625 4.5 -1.800781 4.5 -2.1875 C 4.5 -2.5 4.375 -2.757812 4.125 -2.96875 C 3.882812 -3.175781 3.539062 -3.363281 3.09375 -3.53125 C 2.644531 -3.695312 2.269531 -3.863281 1.96875 -4.03125 C 1.664062 -4.195312 1.40625 -4.425781 1.1875 -4.71875 C 0.96875 -5.019531 0.859375 -5.394531 0.859375 -5.84375 C 0.859375 -6.5 1.078125 -7.023438 1.515625 -7.421875 C 1.960938 -7.828125 2.550781 -8.046875 3.28125 -8.078125 C 3.8125 -8.078125 4.273438 -8.015625 4.671875 -7.890625 C 5.078125 -7.765625 5.453125 -7.59375 5.796875 -7.375 Z M 5.3125 -6.390625 "/></g></g></g><g fill="#e8d6d6" fill-opacity="1"><g transform="translate(174.048146, 226.574878)"><g><path d="M 9.21875 -8.3125 L 9.21875 0 L 7.9375 0 L 7.9375 -4.640625 L 5.125 -0.65625 L 5.09375 -0.65625 L 2.34375 -4.453125 L 2.34375 0 L 1.109375 0 L 1.109375 -8.3125 L 5.125 -2.640625 L 9.1875 -8.3125 Z M 9.21875 -8.3125 "/></g></g></g><g fill="#e8d6d6" fill-opacity="1"><g transform="translate(188.774905, 226.574878)"><g><path d="M 6.4375 -8.03125 L 6.4375 -6.796875 L 2.390625 -6.796875 L 2.390625 -4.65625 L 5.984375 -4.65625 L 5.984375 -3.421875 L 2.390625 -3.421875 L 2.390625 -1.234375 L 6.578125 -1.234375 L 6.578125 0 L 1.109375 0 L 1.109375 -8.03125 Z M 6.4375 -8.03125 "/></g></g></g><g fill="#e8d6d6" fill-opacity="1"><g transform="translate(200.445996, 226.574878)"><g><path d="M 5.90625 -8.03125 L 5.90625 -6.796875 L 3.828125 -6.796875 L 3.828125 0 L 2.546875 0 L 2.546875 -6.796875 L 0.53125 -6.796875 L 0.53125 -8.03125 Z M 5.90625 -8.03125 "/></g></g></g><g fill="#e8d6d6" fill-opacity="1"><g transform="translate(211.28974, 226.574878)"><g><path d="M 2.390625 -8.03125 L 2.390625 0 L 1.109375 0 L 1.109375 -8.03125 Z M 2.390625 -8.03125 "/></g></g></g><g fill="#e8d6d6" fill-opacity="1"><g transform="translate(219.199162, 226.574878)"><g><path d="M 7.0625 -0.625 C 6.820312 -0.457031 6.492188 -0.296875 6.078125 -0.140625 C 5.660156 0.015625 5.207031 0.09375 4.71875 0.09375 C 3.882812 0.09375 3.15625 -0.0859375 2.53125 -0.453125 C 1.914062 -0.816406 1.441406 -1.304688 1.109375 -1.921875 C 0.773438 -2.535156 0.609375 -3.210938 0.609375 -3.953125 C 0.609375 -4.753906 0.773438 -5.46875 1.109375 -6.09375 C 1.441406 -6.726562 1.90625 -7.222656 2.5 -7.578125 C 3.101562 -7.941406 3.789062 -8.125 4.5625 -8.125 C 5.03125 -8.125 5.460938 -8.0625 5.859375 -7.9375 C 6.265625 -7.8125 6.617188 -7.648438 6.921875 -7.453125 L 6.421875 -6.25 C 5.828125 -6.675781 5.21875 -6.890625 4.59375 -6.890625 C 4.125 -6.890625 3.6875 -6.757812 3.28125 -6.5 C 2.875 -6.25 2.546875 -5.90625 2.296875 -5.46875 C 2.054688 -5.03125 1.9375 -4.550781 1.9375 -4.03125 C 1.9375 -3.476562 2.046875 -2.984375 2.265625 -2.546875 C 2.492188 -2.109375 2.816406 -1.765625 3.234375 -1.515625 C 3.648438 -1.265625 4.128906 -1.140625 4.671875 -1.140625 C 5.066406 -1.140625 5.421875 -1.195312 5.734375 -1.3125 C 6.046875 -1.4375 6.304688 -1.59375 6.515625 -1.78125 Z M 7.0625 -0.625 "/></g></g></g><g fill="#e8d6d6" fill-opacity="1"><g transform="translate(231.278412, 226.574878)"><g><path d="M 5.3125 -6.390625 C 4.625 -6.753906 4.007812 -6.9375 3.46875 -6.9375 C 3.070312 -6.9375 2.757812 -6.847656 2.53125 -6.671875 C 2.300781 -6.492188 2.1875 -6.253906 2.1875 -5.953125 C 2.1875 -5.648438 2.332031 -5.394531 2.625 -5.1875 C 2.914062 -4.988281 3.320312 -4.789062 3.84375 -4.59375 C 4.238281 -4.445312 4.578125 -4.285156 4.859375 -4.109375 C 5.140625 -3.929688 5.367188 -3.6875 5.546875 -3.375 C 5.734375 -3.0625 5.828125 -2.671875 5.828125 -2.203125 C 5.828125 -1.773438 5.722656 -1.390625 5.515625 -1.046875 C 5.304688 -0.703125 5 -0.425781 4.59375 -0.21875 C 4.1875 -0.0078125 3.707031 0.09375 3.15625 0.09375 C 2.664062 0.09375 2.1875 0.0195312 1.71875 -0.125 C 1.25 -0.28125 0.832031 -0.492188 0.46875 -0.765625 L 1.03125 -1.765625 C 1.300781 -1.554688 1.625 -1.382812 2 -1.25 C 2.375 -1.113281 2.71875 -1.046875 3.03125 -1.046875 C 3.425781 -1.046875 3.769531 -1.140625 4.0625 -1.328125 C 4.351562 -1.515625 4.5 -1.800781 4.5 -2.1875 C 4.5 -2.5 4.375 -2.757812 4.125 -2.96875 C 3.882812 -3.175781 3.539062 -3.363281 3.09375 -3.53125 C 2.644531 -3.695312 2.269531 -3.863281 1.96875 -4.03125 C 1.664062 -4.195312 1.40625 -4.425781 1.1875 -4.71875 C 0.96875 -5.019531 0.859375 -5.394531 0.859375 -5.84375 C 0.859375 -6.5 1.078125 -7.023438 1.515625 -7.421875 C 1.960938 -7.828125 2.550781 -8.046875 3.28125 -8.078125 C 3.8125 -8.078125 4.273438 -8.015625 4.671875 -7.890625 C 5.078125 -7.765625 5.453125 -7.59375 5.796875 -7.375 Z M 5.3125 -6.390625 "/></g></g></g><g fill="#e8d6d6" fill-opacity="1"><g transform="translate(167.705282, 184.147282)"><g><path d="M 54.722656 -57.515625 C 54.117188 -57.757812 53.148438 -57.878906 50.355469 -58.121094 C 47.808594 -58.363281 29 -59.09375 26.695312 -59.09375 L 23.296875 -59.214844 L 20.992188 -59.214844 C 21.355469 -59.699219 22.449219 -60.914062 23.175781 -61.519531 C 23.660156 -61.882812 24.148438 -62.367188 24.632812 -62.976562 C 25.117188 -63.582031 26.816406 -65.160156 27.664062 -65.886719 L 28.878906 -66.859375 L 29.363281 -67.464844 C 29.726562 -67.828125 29.726562 -67.949219 29.484375 -68.3125 C 29.363281 -68.558594 29.121094 -68.679688 29 -68.679688 C 28.757812 -68.679688 27.300781 -67.585938 27.179688 -67.222656 L 26.089844 -66.25 C 24.753906 -65.160156 24.511719 -65.039062 24.269531 -64.675781 C 24.023438 -64.429688 20.871094 -61.398438 20.386719 -61.035156 L 20.019531 -60.671875 L 19.050781 -59.578125 L 18.566406 -59.09375 L 1.457031 -58.730469 L -1.214844 -58.484375 C -3.277344 -58.363281 -9.101562 -57.878906 -10.070312 -57.636719 C -11.042969 -57.394531 -11.527344 -56.910156 -11.164062 -56.542969 C -11.042969 -56.300781 -8.613281 -56.542969 -6.917969 -56.910156 C -6.550781 -57.03125 -3.640625 -57.394531 -0.726562 -57.515625 L 2.304688 -57.757812 L 5.582031 -57.878906 L 9.585938 -58.121094 C 10.679688 -58.242188 14.804688 -58.242188 17.472656 -58.242188 C 17.351562 -58 17.109375 -57.878906 16.988281 -57.636719 L 16.625 -57.394531 L 16.257812 -56.910156 L 14.804688 -55.332031 C 13.105469 -53.511719 7.765625 -47.6875 6.671875 -46.109375 C 6.671875 -46.109375 4.730469 -43.804688 4.730469 -43.925781 C 4.730469 -43.804688 4.246094 -43.316406 3.761719 -42.832031 C 3.15625 -42.226562 2.183594 -41.132812 -0.363281 -38.101562 L -1.335938 -37.007812 L -2.304688 -35.796875 C -2.546875 -35.429688 -2.667969 -35.1875 -2.789062 -35.1875 C -3.035156 -35.1875 -3.640625 -34.460938 -5.582031 -31.914062 C -6.308594 -31.0625 -6.917969 -30.335938 -7.160156 -30.214844 C -7.28125 -29.972656 -8.492188 -28.515625 -9.828125 -26.9375 L -12.863281 -23.175781 L -17.835938 -16.503906 C -19.050781 -14.804688 -19.777344 -13.832031 -20.019531 -13.953125 L -20.019531 -13.710938 C -20.019531 -13.589844 -20.019531 -13.347656 -20.140625 -13.105469 C -20.265625 -12.742188 -20.386719 -12.621094 -20.507812 -12.742188 C -20.507812 -12.621094 -20.628906 -12.496094 -20.628906 -12.496094 C -20.628906 -12.253906 -20.628906 -12.132812 -20.75 -12.132812 C -20.75 -12.253906 -21.113281 -11.527344 -21.355469 -10.679688 C -21.839844 -9.464844 -21.960938 -8.980469 -21.839844 -8.371094 C -21.597656 -7.644531 -21.476562 -7.523438 -21.113281 -7.402344 C -20.628906 -7.402344 -20.386719 -7.402344 -20.265625 -7.644531 C -20.019531 -8.007812 -20.019531 -8.007812 -20.507812 -8.128906 C -20.992188 -8.128906 -20.992188 -8.25 -20.992188 -8.738281 C -20.871094 -9.34375 -19.898438 -11.40625 -19.050781 -12.742188 C -16.746094 -16.136719 -10.679688 -23.902344 -6.796875 -28.394531 L -4.855469 -30.699219 L -0.847656 -35.308594 L 2.425781 -38.949219 L 3.519531 -40.285156 L 4.976562 -41.863281 C 6.066406 -43.074219 7.039062 -44.289062 9.101562 -46.714844 C 9.828125 -47.566406 10.679688 -48.414062 11.042969 -48.777344 C 11.40625 -49.144531 12.011719 -49.871094 12.375 -50.355469 L 14.4375 -52.539062 C 15.773438 -53.996094 16.625 -54.722656 17.351562 -55.695312 L 18.445312 -56.785156 C 18.808594 -57.273438 19.171875 -57.515625 19.414062 -57.878906 L 20.019531 -58.242188 C 20.992188 -58.363281 21.71875 -58.242188 22.082031 -58.242188 L 22.570312 -58.242188 C 29.605469 -58.121094 46.472656 -57.636719 48.898438 -57.273438 C 49.628906 -57.03125 50.839844 -57.03125 51.449219 -56.910156 C 52.660156 -56.910156 52.660156 -56.910156 52.417969 -56.421875 C 52.175781 -56.179688 52.296875 -55.9375 52.417969 -55.816406 C 52.660156 -55.574219 52.78125 -55.453125 52.902344 -55.574219 L 54.117188 -56.058594 C 55.453125 -56.664062 55.574219 -57.03125 54.722656 -57.515625 Z M 54.722656 -57.515625 "/></g></g></g><g fill="#e8d6d6" fill-opacity="1"><g transform="translate(180.081816, 184.147282)"><g><path d="M 43.683594 -66.738281 C 43.441406 -67.101562 42.226562 -67.101562 41.011719 -66.859375 L 39.679688 -66.617188 C 38.949219 -66.496094 37.738281 -66.128906 37.25 -65.886719 L 36.28125 -65.644531 C 33.734375 -64.917969 30.335938 -63.460938 27.785156 -62.003906 L 26.453125 -61.277344 L 25.359375 -60.546875 L 23.296875 -59.214844 C 21.839844 -58.242188 20.140625 -57.03125 20.019531 -56.910156 L 16.136719 -53.875 L 13.589844 -51.691406 L 9.464844 -48.050781 C 8.859375 -47.445312 8.128906 -46.714844 7.765625 -46.472656 L 6.671875 -46.109375 C 6.066406 -45.867188 5.582031 -45.746094 5.582031 -45.625 C 5.582031 -45.625 5.460938 -45.503906 5.339844 -45.503906 C 5.21875 -45.503906 4.855469 -45.382812 4.367188 -45.136719 C 4.003906 -45.015625 3.761719 -44.894531 3.640625 -44.773438 L 2.425781 -44.289062 L -1.335938 -42.953125 C -1.699219 -42.832031 -2.183594 -42.589844 -2.304688 -42.46875 C -2.546875 -41.984375 -2.425781 -41.742188 -1.941406 -41.742188 C -1.699219 -41.742188 -1.214844 -41.863281 -0.726562 -41.984375 L 0.484375 -42.589844 C 0.847656 -42.832031 1.335938 -42.953125 1.820312 -43.074219 L 4.003906 -43.804688 C 4.125 -43.925781 4.367188 -43.925781 4.609375 -44.046875 C 4.609375 -44.167969 5.460938 -44.410156 5.582031 -44.289062 C 5.582031 -44.289062 4.730469 -43.316406 3.519531 -42.226562 L -0.726562 -37.738281 L -1.214844 -37.25 L -2.304688 -35.917969 L -3.398438 -34.703125 C -3.761719 -34.339844 -4.246094 -33.855469 -4.246094 -33.367188 C -4.246094 -33.003906 -3.761719 -32.761719 -3.519531 -32.640625 C -3.15625 -32.519531 -3.035156 -32.640625 -2.914062 -32.761719 L -2.546875 -33.003906 L -1.941406 -33.488281 L -1.578125 -33.855469 L -1.214844 -34.097656 L -0.972656 -34.21875 L 0.484375 -35.675781 L 1.214844 -36.039062 L 1.335938 -36.039062 L 2.0625 -36.523438 C 2.304688 -36.765625 2.914062 -37.007812 3.398438 -37.128906 L 4.730469 -37.617188 C 5.097656 -37.738281 5.339844 -37.859375 5.339844 -37.738281 C 5.339844 -37.617188 5.339844 -37.617188 5.21875 -37.617188 C 5.097656 -37.617188 4.246094 -36.523438 3.882812 -35.796875 L 3.519531 -35.066406 C 3.035156 -33.976562 3.035156 -33.488281 3.640625 -33.003906 C 4.003906 -32.761719 4.246094 -32.640625 4.609375 -32.761719 L 4.855469 -32.882812 C 5.824219 -33.003906 9.101562 -34.460938 9.585938 -34.703125 C 10.3125 -34.945312 10.070312 -35.066406 11.769531 -35.796875 C 12.011719 -35.796875 12.496094 -36.28125 13.105469 -36.523438 C 15.652344 -37.738281 13.46875 -36.886719 15.773438 -37.738281 C 16.867188 -38.464844 16.015625 -38.464844 15.53125 -38.464844 L 12.496094 -37.128906 C 10.921875 -36.402344 6.671875 -34.582031 5.460938 -34.097656 L 4.976562 -33.976562 L 4.730469 -33.976562 C 4.609375 -33.976562 4.730469 -34.460938 5.097656 -35.1875 L 5.21875 -35.550781 C 5.460938 -36.039062 6.1875 -36.886719 7.28125 -37.980469 C 7.765625 -38.585938 7.886719 -38.707031 7.765625 -38.949219 C 7.523438 -39.3125 7.039062 -39.3125 5.460938 -38.828125 C 3.519531 -38.101562 2.425781 -37.738281 1.457031 -37.25 C 1.335938 -37.25 1.335938 -37.128906 1.214844 -37.128906 C 0.972656 -37.007812 0.726562 -36.886719 0.605469 -37.007812 L 0.605469 -37.25 C 0.972656 -37.859375 4.246094 -41.132812 6.550781 -43.441406 L 8.613281 -45.503906 L 9.222656 -45.867188 L 13.832031 -47.929688 C 15.410156 -48.65625 16.382812 -49.019531 16.625 -49.144531 L 18.6875 -49.992188 C 19.65625 -50.476562 20.628906 -50.839844 20.75 -50.839844 C 20.992188 -50.839844 21.597656 -51.085938 22.082031 -51.328125 C 24.632812 -52.539062 30.214844 -55.089844 31.546875 -55.9375 L 32.277344 -56.179688 C 32.640625 -56.300781 32.882812 -56.542969 32.882812 -56.664062 C 33.003906 -56.785156 33.246094 -56.910156 33.488281 -57.03125 C 33.734375 -57.03125 34.21875 -57.273438 34.582031 -57.515625 L 36.402344 -58.605469 C 37.007812 -59.09375 38.222656 -59.820312 38.949219 -60.425781 L 40.769531 -61.761719 C 41.375 -62.125 42.953125 -63.703125 43.441406 -64.554688 C 44.046875 -65.402344 44.046875 -66.25 43.683594 -66.738281 Z M 42.46875 -64.917969 L 41.742188 -64.066406 C 41.5 -63.703125 41.132812 -63.21875 41.011719 -63.21875 L 39.800781 -62.246094 C 39.070312 -61.519531 37.25 -60.304688 35.675781 -59.335938 L 31.546875 -57.03125 L 30.09375 -56.300781 L 28.757812 -55.574219 L 26.453125 -54.480469 C 25.722656 -53.996094 24.875 -53.632812 24.511719 -53.511719 L 22.8125 -52.902344 L 20.386719 -51.8125 L 17.714844 -50.71875 C 17.109375 -50.476562 16.503906 -50.234375 16.382812 -50.234375 C 16.257812 -50.234375 15.773438 -49.992188 15.167969 -49.75 C 14.683594 -49.507812 14.074219 -49.265625 13.953125 -49.265625 C 13.832031 -49.265625 13.226562 -48.898438 12.496094 -48.535156 C 11.648438 -48.171875 11.285156 -48.050781 11.285156 -48.171875 C 11.285156 -48.292969 11.285156 -48.535156 11.40625 -48.535156 L 12.863281 -49.75 C 15.289062 -51.933594 19.777344 -55.695312 20.019531 -55.695312 L 20.992188 -56.421875 C 22.8125 -57.878906 26.695312 -60.425781 29.726562 -62.003906 C 32.035156 -63.097656 35.1875 -64.308594 37.371094 -64.917969 L 39.3125 -65.523438 C 39.679688 -65.644531 41.742188 -65.886719 42.105469 -65.765625 C 42.347656 -65.644531 42.46875 -65.523438 42.589844 -65.28125 C 42.589844 -65.160156 42.46875 -64.917969 42.46875 -64.917969 Z M 42.46875 -64.917969 "/></g></g></g><g fill="#e8d6d6" fill-opacity="1"><g transform="translate(197.554543, 184.147282)"><g><path d="M -1.214844 -33.125 C 0.121094 -33.367188 0.972656 -33.609375 3.15625 -34.703125 L 8.613281 -37.128906 L 10.191406 -37.859375 C 10.3125 -37.980469 10.3125 -38.34375 10.070312 -38.464844 L 9.949219 -38.585938 L 9.585938 -38.585938 L 9.34375 -38.464844 C 2.667969 -35.550781 -1.335938 -34.097656 -2.0625 -34.339844 C -2.304688 -34.460938 -2.304688 -34.582031 -1.941406 -34.945312 C -1.699219 -35.429688 -1.457031 -35.550781 -0.605469 -35.796875 C 0.726562 -36.160156 1.941406 -36.765625 4.003906 -38.222656 C 5.945312 -39.558594 6.796875 -40.285156 6.671875 -40.648438 C 6.429688 -41.375 5.339844 -41.253906 3.398438 -40.527344 C 0.972656 -39.679688 -1.820312 -37.492188 -3.035156 -35.550781 C -3.640625 -34.582031 -3.761719 -34.21875 -3.519531 -33.734375 C -3.398438 -32.882812 -3.15625 -32.882812 -1.214844 -33.125 Z M -0.242188 -37.128906 C -0.121094 -37.492188 1.941406 -38.949219 2.789062 -39.191406 C 3.519531 -39.558594 4.730469 -40.042969 4.730469 -39.800781 C 4.609375 -39.679688 2.789062 -38.464844 1.699219 -37.859375 C 0.363281 -37.128906 -0.484375 -36.886719 -0.242188 -37.128906 Z M -0.242188 -37.128906 "/></g></g></g><g fill="#e8d6d6" fill-opacity="1"><g transform="translate(156.814561, 249.809166)"><g><path d="M 4.265625 -5.328125 L 4.265625 -4.515625 L 1.59375 -4.515625 L 1.59375 -3.09375 L 3.984375 -3.09375 L 3.984375 -2.265625 L 1.59375 -2.265625 L 1.59375 -0.828125 L 4.375 -0.828125 L 4.375 0 L 0.734375 0 L 0.734375 -5.328125 Z M 4.265625 -5.328125 "/></g></g></g><g fill="#e8d6d6" fill-opacity="1"><g transform="translate(164.565325, 249.809166)"><g><path d="M 3.53125 -4.25 C 3.070312 -4.488281 2.664062 -4.609375 2.3125 -4.609375 C 2.039062 -4.609375 1.828125 -4.546875 1.671875 -4.421875 C 1.523438 -4.304688 1.453125 -4.148438 1.453125 -3.953125 C 1.453125 -3.753906 1.546875 -3.585938 1.734375 -3.453125 C 1.929688 -3.316406 2.203125 -3.179688 2.546875 -3.046875 C 2.816406 -2.953125 3.046875 -2.84375 3.234375 -2.71875 C 3.421875 -2.601562 3.570312 -2.441406 3.6875 -2.234375 C 3.8125 -2.035156 3.875 -1.78125 3.875 -1.46875 C 3.875 -1.1875 3.800781 -0.929688 3.65625 -0.703125 C 3.519531 -0.472656 3.316406 -0.285156 3.046875 -0.140625 C 2.773438 -0.00390625 2.457031 0.0625 2.09375 0.0625 C 1.769531 0.0625 1.453125 0.015625 1.140625 -0.078125 C 0.828125 -0.179688 0.550781 -0.320312 0.3125 -0.5 L 0.6875 -1.171875 C 0.863281 -1.035156 1.078125 -0.921875 1.328125 -0.828125 C 1.578125 -0.742188 1.804688 -0.703125 2.015625 -0.703125 C 2.273438 -0.703125 2.5 -0.757812 2.6875 -0.875 C 2.882812 -1 2.984375 -1.191406 2.984375 -1.453125 C 2.984375 -1.660156 2.898438 -1.832031 2.734375 -1.96875 C 2.578125 -2.101562 2.351562 -2.226562 2.0625 -2.34375 C 1.757812 -2.457031 1.503906 -2.566406 1.296875 -2.671875 C 1.097656 -2.785156 0.925781 -2.941406 0.78125 -3.140625 C 0.644531 -3.335938 0.578125 -3.585938 0.578125 -3.890625 C 0.578125 -4.316406 0.722656 -4.660156 1.015625 -4.921875 C 1.304688 -5.191406 1.695312 -5.335938 2.1875 -5.359375 C 2.539062 -5.359375 2.847656 -5.316406 3.109375 -5.234375 C 3.378906 -5.160156 3.628906 -5.050781 3.859375 -4.90625 Z M 3.53125 -4.25 "/></g></g></g><g fill="#e8d6d6" fill-opacity="1"><g transform="translate(171.759325, 249.809166)"><g><path d="M 3.921875 -5.328125 L 3.921875 -4.515625 L 2.546875 -4.515625 L 2.546875 0 L 1.6875 0 L 1.6875 -4.515625 L 0.359375 -4.515625 L 0.359375 -5.328125 Z M 3.921875 -5.328125 "/></g></g></g><g fill="#e8d6d6" fill-opacity="1"><g transform="translate(178.960646, 249.809166)"><g><path d="M 0.734375 -5.328125 L 2.25 -5.328125 C 2.914062 -5.328125 3.46875 -5.195312 3.90625 -4.9375 C 4.34375 -4.675781 4.660156 -4.335938 4.859375 -3.921875 C 5.066406 -3.503906 5.171875 -3.0625 5.171875 -2.59375 C 5.171875 -2.070312 5.046875 -1.613281 4.796875 -1.21875 C 4.554688 -0.832031 4.234375 -0.53125 3.828125 -0.3125 C 3.421875 -0.101562 2.976562 0 2.5 0 L 0.734375 0 Z M 2.359375 -0.828125 C 2.734375 -0.828125 3.066406 -0.894531 3.359375 -1.03125 C 3.648438 -1.175781 3.875 -1.382812 4.03125 -1.65625 C 4.195312 -1.9375 4.28125 -2.269531 4.28125 -2.65625 C 4.28125 -3.070312 4.191406 -3.421875 4.015625 -3.703125 C 3.835938 -3.984375 3.609375 -4.1875 3.328125 -4.3125 C 3.054688 -4.445312 2.773438 -4.515625 2.484375 -4.515625 L 1.59375 -4.515625 L 1.59375 -0.828125 Z M 2.359375 -0.828125 "/></g></g></g><g fill="#e8d6d6" fill-opacity="1"><g transform="translate(187.465975, 249.809166)"><g/></g></g><g fill="#e8d6d6" fill-opacity="1"><g transform="translate(192.740589, 249.809166)"><g><path d="M 3.765625 -0.828125 L 3.765625 0 L 0.390625 0 L 0.65625 -0.265625 C 1.144531 -0.742188 1.523438 -1.132812 1.796875 -1.4375 C 2.078125 -1.75 2.304688 -2.0625 2.484375 -2.375 C 2.671875 -2.6875 2.765625 -2.976562 2.765625 -3.25 C 2.765625 -3.519531 2.679688 -3.722656 2.515625 -3.859375 C 2.359375 -4.003906 2.160156 -4.078125 1.921875 -4.078125 C 1.660156 -4.078125 1.457031 -4.003906 1.3125 -3.859375 C 1.175781 -3.710938 1.109375 -3.546875 1.109375 -3.359375 C 1.109375 -3.054688 1.203125 -2.804688 1.390625 -2.609375 L 0.875 -2.125 C 0.695312 -2.226562 0.550781 -2.40625 0.4375 -2.65625 C 0.332031 -2.90625 0.28125 -3.132812 0.28125 -3.34375 C 0.28125 -3.613281 0.347656 -3.867188 0.484375 -4.109375 C 0.628906 -4.347656 0.835938 -4.535156 1.109375 -4.671875 C 1.378906 -4.816406 1.695312 -4.890625 2.0625 -4.890625 C 2.375 -4.890625 2.648438 -4.816406 2.890625 -4.671875 C 3.128906 -4.535156 3.316406 -4.347656 3.453125 -4.109375 C 3.585938 -3.867188 3.65625 -3.609375 3.65625 -3.328125 C 3.65625 -3.046875 3.585938 -2.769531 3.453125 -2.5 C 3.328125 -2.226562 3.175781 -1.972656 3 -1.734375 C 2.820312 -1.503906 2.570312 -1.203125 2.25 -0.828125 Z M 3.765625 -0.828125 "/></g></g></g><g fill="#e8d6d6" fill-opacity="1"><g transform="translate(199.773417, 249.809166)"><g><path d="M 2.296875 0.015625 C 1.898438 0.015625 1.546875 -0.078125 1.234375 -0.265625 C 0.929688 -0.460938 0.691406 -0.742188 0.515625 -1.109375 C 0.335938 -1.484375 0.25 -1.925781 0.25 -2.4375 C 0.25 -3.269531 0.429688 -3.882812 0.796875 -4.28125 C 1.160156 -4.6875 1.660156 -4.890625 2.296875 -4.890625 C 2.679688 -4.890625 3.023438 -4.789062 3.328125 -4.59375 C 3.640625 -4.40625 3.882812 -4.125 4.0625 -3.75 C 4.238281 -3.382812 4.328125 -2.945312 4.328125 -2.4375 C 4.328125 -1.914062 4.238281 -1.46875 4.0625 -1.09375 C 3.882812 -0.726562 3.640625 -0.453125 3.328125 -0.265625 C 3.023438 -0.078125 2.679688 0.015625 2.296875 0.015625 Z M 2.28125 -0.796875 C 2.664062 -0.796875 2.953125 -0.945312 3.140625 -1.25 C 3.335938 -1.550781 3.4375 -1.957031 3.4375 -2.46875 C 3.4375 -2.957031 3.335938 -3.347656 3.140625 -3.640625 C 2.953125 -3.929688 2.664062 -4.070312 2.28125 -4.0625 C 1.90625 -4.070312 1.617188 -3.925781 1.421875 -3.625 C 1.234375 -3.332031 1.140625 -2.9375 1.140625 -2.4375 C 1.140625 -1.9375 1.234375 -1.535156 1.421875 -1.234375 C 1.617188 -0.941406 1.90625 -0.796875 2.28125 -0.796875 Z M 2.28125 -0.796875 "/></g></g></g><g fill="#e8d6d6" fill-opacity="1"><g transform="translate(207.282423, 249.809166)"><g><path d="M 3.765625 -0.828125 L 3.765625 0 L 0.390625 0 L 0.65625 -0.265625 C 1.144531 -0.742188 1.523438 -1.132812 1.796875 -1.4375 C 2.078125 -1.75 2.304688 -2.0625 2.484375 -2.375 C 2.671875 -2.6875 2.765625 -2.976562 2.765625 -3.25 C 2.765625 -3.519531 2.679688 -3.722656 2.515625 -3.859375 C 2.359375 -4.003906 2.160156 -4.078125 1.921875 -4.078125 C 1.660156 -4.078125 1.457031 -4.003906 1.3125 -3.859375 C 1.175781 -3.710938 1.109375 -3.546875 1.109375 -3.359375 C 1.109375 -3.054688 1.203125 -2.804688 1.390625 -2.609375 L 0.875 -2.125 C 0.695312 -2.226562 0.550781 -2.40625 0.4375 -2.65625 C 0.332031 -2.90625 0.28125 -3.132812 0.28125 -3.34375 C 0.28125 -3.613281 0.347656 -3.867188 0.484375 -4.109375 C 0.628906 -4.347656 0.835938 -4.535156 1.109375 -4.671875 C 1.378906 -4.816406 1.695312 -4.890625 2.0625 -4.890625 C 2.375 -4.890625 2.648438 -4.816406 2.890625 -4.671875 C 3.128906 -4.535156 3.316406 -4.347656 3.453125 -4.109375 C 3.585938 -3.867188 3.65625 -3.609375 3.65625 -3.328125 C 3.65625 -3.046875 3.585938 -2.769531 3.453125 -2.5 C 3.328125 -2.226562 3.175781 -1.972656 3 -1.734375 C 2.820312 -1.503906 2.570312 -1.203125 2.25 -0.828125 Z M 3.765625 -0.828125 "/></g></g></g><g fill="#e8d6d6" fill-opacity="1"><g transform="translate(214.315251, 249.809166)"><g><path d="M 2.234375 -3.0625 C 2.566406 -3.019531 2.84375 -2.878906 3.0625 -2.640625 C 3.28125 -2.410156 3.390625 -2.066406 3.390625 -1.609375 C 3.390625 -1.273438 3.3125 -0.984375 3.15625 -0.734375 C 3 -0.484375 2.789062 -0.285156 2.53125 -0.140625 C 2.269531 -0.00390625 1.984375 0.0625 1.671875 0.0625 C 1.429688 0.0625 1.1875 0.015625 0.9375 -0.078125 C 0.695312 -0.179688 0.503906 -0.3125 0.359375 -0.46875 L 0.78125 -1.1875 C 0.875 -1.070312 1 -0.972656 1.15625 -0.890625 C 1.320312 -0.804688 1.488281 -0.765625 1.65625 -0.765625 C 1.894531 -0.765625 2.097656 -0.84375 2.265625 -1 C 2.429688 -1.164062 2.515625 -1.382812 2.515625 -1.65625 C 2.515625 -1.90625 2.4375 -2.101562 2.28125 -2.25 C 2.132812 -2.40625 1.9375 -2.484375 1.6875 -2.484375 C 1.5625 -2.484375 1.457031 -2.472656 1.375 -2.453125 C 1.289062 -2.441406 1.195312 -2.421875 1.09375 -2.390625 L 1.0625 -2.421875 L 2.03125 -4.015625 L 0.6875 -4.015625 L 0.6875 -4.84375 L 3.265625 -4.84375 Z M 2.234375 -3.0625 "/></g></g></g></svg>