<svg xmlns="http://www.w3.org/2000/svg" xmlns:xlink="http://www.w3.org/1999/xlink" width="500" zoomAndPan="magnify" viewBox="0 0 375 374.999991" height="500" preserveAspectRatio="xMidYMid meet" version="1.0"><defs><g/></defs><g fill="#336870" fill-opacity="1"><g transform="translate(55.159957, 199.558302)"><g><path d="M 10.5 0.296875 C 8.21875 0.296875 6.347656 -0.519531 4.890625 -2.15625 C 3.429688 -3.800781 2.703125 -6.28125 2.703125 -9.59375 L 2.703125 -15 L 6.296875 -15 L 6.296875 -7.203125 C 6.296875 -4.921875 6.695312 -3.25 7.5 -2.1875 C 8.300781 -1.125 9.300781 -0.59375 10.5 -0.59375 C 11.695312 -0.59375 12.695312 -1.125 13.5 -2.1875 C 14.300781 -3.25 14.703125 -4.921875 14.703125 -7.203125 L 14.703125 -10.5625 C 14.703125 -11.800781 14.570312 -12.878906 14.3125 -13.796875 C 14.050781 -14.722656 13.679688 -15.5625 13.203125 -16.3125 C 12.722656 -17.070312 12.140625 -17.789062 11.453125 -18.46875 C 10.773438 -19.15625 10 -19.921875 9.125 -20.765625 L 7.984375 -21.84375 C 7.265625 -22.519531 6.582031 -23.175781 5.9375 -23.8125 C 5.300781 -24.457031 4.742188 -25.140625 4.265625 -25.859375 C 3.785156 -26.578125 3.40625 -27.363281 3.125 -28.21875 C 2.84375 -29.082031 2.703125 -30.078125 2.703125 -31.203125 L 2.703125 -33.90625 C 2.703125 -36.457031 3.429688 -38.492188 4.890625 -40.015625 C 6.347656 -41.535156 8.21875 -42.296875 10.5 -42.296875 C 11.539062 -42.296875 12.519531 -42.09375 13.4375 -41.6875 C 14.351562 -41.289062 15.148438 -40.734375 15.828125 -40.015625 C 16.515625 -39.296875 17.046875 -38.414062 17.421875 -37.375 C 17.804688 -36.332031 18 -35.175781 18 -33.90625 L 18 -28.5 L 14.40625 -28.5 L 14.40625 -35.09375 C 14.40625 -37.21875 14.015625 -38.800781 13.234375 -39.84375 C 12.453125 -40.882812 11.539062 -41.40625 10.5 -41.40625 C 9.457031 -41.40625 8.546875 -40.882812 7.765625 -39.84375 C 6.984375 -38.800781 6.59375 -37.21875 6.59375 -35.09375 L 6.59375 -32.40625 C 6.59375 -31.476562 6.703125 -30.664062 6.921875 -29.96875 C 7.148438 -29.269531 7.460938 -28.617188 7.859375 -28.015625 C 8.253906 -27.421875 8.722656 -26.84375 9.265625 -26.28125 C 9.804688 -25.71875 10.398438 -25.140625 11.046875 -24.546875 L 12.1875 -23.453125 C 13.019531 -22.660156 13.828125 -21.851562 14.609375 -21.03125 C 15.390625 -20.207031 16.078125 -19.351562 16.671875 -18.46875 C 17.273438 -17.59375 17.742188 -16.664062 18.078125 -15.6875 C 18.421875 -14.707031 18.59375 -13.640625 18.59375 -12.484375 L 18.59375 -9.59375 C 18.59375 -6.28125 17.84375 -3.800781 16.34375 -2.15625 C 14.84375 -0.519531 12.894531 0.296875 10.5 0.296875 Z M 10.5 0.296875 "/></g></g></g><g fill="#336870" fill-opacity="1"><g transform="translate(95.659931, 199.558302)"><g><path d="M 11.703125 0.296875 C 9.140625 0.296875 7.097656 -0.5625 5.578125 -2.28125 C 4.054688 -4 3.296875 -6.738281 3.296875 -10.5 L 3.296875 -31.5 C 3.296875 -35.257812 4.054688 -38 5.578125 -39.71875 C 7.097656 -41.4375 9.140625 -42.296875 11.703125 -42.296875 C 14.265625 -42.296875 16.300781 -41.4375 17.8125 -39.71875 C 19.332031 -38 20.09375 -35.257812 20.09375 -31.5 L 20.09375 -10.5 C 20.09375 -6.738281 19.332031 -4 17.8125 -2.28125 C 16.300781 -0.5625 14.265625 0.296875 11.703125 0.296875 Z M 11.703125 -0.59375 C 13.054688 -0.59375 14.144531 -1.132812 14.96875 -2.21875 C 15.789062 -3.300781 16.203125 -5.0625 16.203125 -7.5 L 16.203125 -34.5 C 16.203125 -36.9375 15.789062 -38.695312 14.96875 -39.78125 C 14.144531 -40.863281 13.054688 -41.40625 11.703125 -41.40625 C 10.335938 -41.40625 9.242188 -40.863281 8.421875 -39.78125 C 7.609375 -38.695312 7.203125 -36.9375 7.203125 -34.5 L 7.203125 -7.5 C 7.203125 -5.0625 7.609375 -3.300781 8.421875 -2.21875 C 9.242188 -1.132812 10.335938 -0.59375 11.703125 -0.59375 Z M 11.703125 -0.59375 "/></g></g></g><g fill="#336870" fill-opacity="1"><g transform="translate(138.559903, 199.558302)"><g><path d="M 10.5 0.296875 C 8.21875 0.296875 6.347656 -0.519531 4.890625 -2.15625 C 3.429688 -3.800781 2.703125 -6.28125 2.703125 -9.59375 L 2.703125 -15 L 6.296875 -15 L 6.296875 -7.203125 C 6.296875 -4.921875 6.695312 -3.25 7.5 -2.1875 C 8.300781 -1.125 9.300781 -0.59375 10.5 -0.59375 C 11.695312 -0.59375 12.695312 -1.125 13.5 -2.1875 C 14.300781 -3.25 14.703125 -4.921875 14.703125 -7.203125 L 14.703125 -10.5625 C 14.703125 -11.800781 14.570312 -12.878906 14.3125 -13.796875 C 14.050781 -14.722656 13.679688 -15.5625 13.203125 -16.3125 C 12.722656 -17.070312 12.140625 -17.789062 11.453125 -18.46875 C 10.773438 -19.15625 10 -19.921875 9.125 -20.765625 L 7.984375 -21.84375 C 7.265625 -22.519531 6.582031 -23.175781 5.9375 -23.8125 C 5.300781 -24.457031 4.742188 -25.140625 4.265625 -25.859375 C 3.785156 -26.578125 3.40625 -27.363281 3.125 -28.21875 C 2.84375 -29.082031 2.703125 -30.078125 2.703125 -31.203125 L 2.703125 -33.90625 C 2.703125 -36.457031 3.429688 -38.492188 4.890625 -40.015625 C 6.347656 -41.535156 8.21875 -42.296875 10.5 -42.296875 C 11.539062 -42.296875 12.519531 -42.09375 13.4375 -41.6875 C 14.351562 -41.289062 15.148438 -40.734375 15.828125 -40.015625 C 16.515625 -39.296875 17.046875 -38.414062 17.421875 -37.375 C 17.804688 -36.332031 18 -35.175781 18 -33.90625 L 18 -28.5 L 14.40625 -28.5 L 14.40625 -35.09375 C 14.40625 -37.21875 14.015625 -38.800781 13.234375 -39.84375 C 12.453125 -40.882812 11.539062 -41.40625 10.5 -41.40625 C 9.457031 -41.40625 8.546875 -40.882812 7.765625 -39.84375 C 6.984375 -38.800781 6.59375 -37.21875 6.59375 -35.09375 L 6.59375 -32.40625 C 6.59375 -31.476562 6.703125 -30.664062 6.921875 -29.96875 C 7.148438 -29.269531 7.460938 -28.617188 7.859375 -28.015625 C 8.253906 -27.421875 8.722656 -26.84375 9.265625 -26.28125 C 9.804688 -25.71875 10.398438 -25.140625 11.046875 -24.546875 L 12.1875 -23.453125 C 13.019531 -22.660156 13.828125 -21.851562 14.609375 -21.03125 C 15.390625 -20.207031 16.078125 -19.351562 16.671875 -18.46875 C 17.273438 -17.59375 17.742188 -16.664062 18.078125 -15.6875 C 18.421875 -14.707031 18.59375 -13.640625 18.59375 -12.484375 L 18.59375 -9.59375 C 18.59375 -6.28125 17.84375 -3.800781 16.34375 -2.15625 C 14.84375 -0.519531 12.894531 0.296875 10.5 0.296875 Z M 10.5 0.296875 "/></g></g></g><g fill="#336870" fill-opacity="1"><g transform="translate(179.059877, 199.558302)"><g><path d="M 6.90625 -40.921875 L 0 -40.921875 L 0 -42 L 17.703125 -42 L 17.703125 -40.921875 L 10.796875 -40.921875 L 10.796875 0 L 6.90625 0 Z M 6.90625 -40.921875 "/></g></g></g><g fill="#336870" fill-opacity="1"><g transform="translate(216.259856, 199.558302)"><g><path d="M 11.703125 0.296875 C 9.140625 0.296875 7.097656 -0.5625 5.578125 -2.28125 C 4.054688 -4 3.296875 -6.738281 3.296875 -10.5 L 3.296875 -31.5 C 3.296875 -35.257812 4.054688 -38 5.578125 -39.71875 C 7.097656 -41.4375 9.140625 -42.296875 11.703125 -42.296875 C 14.265625 -42.296875 16.300781 -41.4375 17.8125 -39.71875 C 19.332031 -38 20.09375 -35.257812 20.09375 -31.5 L 20.09375 -10.5 C 20.09375 -6.738281 19.332031 -4 17.8125 -2.28125 C 16.300781 -0.5625 14.265625 0.296875 11.703125 0.296875 Z M 11.703125 -0.59375 C 13.054688 -0.59375 14.144531 -1.132812 14.96875 -2.21875 C 15.789062 -3.300781 16.203125 -5.0625 16.203125 -7.5 L 16.203125 -34.5 C 16.203125 -36.9375 15.789062 -38.695312 14.96875 -39.78125 C 14.144531 -40.863281 13.054688 -41.40625 11.703125 -41.40625 C 10.335938 -41.40625 9.242188 -40.863281 8.421875 -39.78125 C 7.609375 -38.695312 7.203125 -36.9375 7.203125 -34.5 L 7.203125 -7.5 C 7.203125 -5.0625 7.609375 -3.300781 8.421875 -2.21875 C 9.242188 -1.132812 10.335938 -0.59375 11.703125 -0.59375 Z M 11.703125 -0.59375 "/></g></g></g><g fill="#336870" fill-opacity="1"><g transform="translate(259.159828, 199.558302)"><g><path d="M 4.203125 -42 L 11.703125 -42 C 14.421875 -42 16.398438 -41.378906 17.640625 -40.140625 C 18.878906 -38.898438 19.5 -36.921875 19.5 -34.203125 L 19.5 -26.40625 C 19.5 -24.125 19.054688 -22.363281 18.171875 -21.125 C 17.296875 -19.882812 15.921875 -19.101562 14.046875 -18.78125 L 21.65625 0 L 17.21875 0 L 10.265625 -18.59375 L 8.09375 -18.59375 L 8.09375 0 L 4.203125 0 Z M 12.296875 -19.796875 C 13.335938 -19.796875 14.144531 -20.164062 14.71875 -20.90625 C 15.300781 -21.644531 15.59375 -23.078125 15.59375 -25.203125 L 15.59375 -35.40625 C 15.59375 -37.5625 15.300781 -39.019531 14.71875 -39.78125 C 14.144531 -40.539062 13.335938 -40.921875 12.296875 -40.921875 L 8.09375 -40.921875 L 8.09375 -19.796875 Z M 12.296875 -19.796875 "/></g></g></g><g fill="#336870" fill-opacity="1"><g transform="translate(301.819806, 199.558302)"><g><path d="M 4.203125 -42 L 16.796875 -42 L 16.796875 -40.921875 L 8.09375 -40.921875 L 8.09375 -21.90625 L 14.703125 -21.90625 L 14.703125 -20.8125 L 8.09375 -20.8125 L 8.09375 -1.078125 L 17.703125 -1.078125 L 17.703125 0 L 4.203125 0 Z M 4.203125 -42 "/></g></g></g><g fill="#336870" fill-opacity="1"><g transform="translate(116.88392, 225.958336)"><g><path d="M 2.546875 0.078125 C 2.242188 0.078125 1.957031 0.0195312 1.6875 -0.09375 C 1.425781 -0.207031 1.195312 -0.390625 1 -0.640625 C 0.8125 -0.890625 0.660156 -1.207031 0.546875 -1.59375 C 0.429688 -1.976562 0.375 -2.4375 0.375 -2.96875 C 0.375 -3.507812 0.429688 -3.972656 0.546875 -4.359375 C 0.660156 -4.742188 0.8125 -5.054688 1 -5.296875 C 1.195312 -5.546875 1.425781 -5.726562 1.6875 -5.84375 C 1.957031 -5.96875 2.242188 -6.03125 2.546875 -6.03125 C 3.066406 -6.03125 3.492188 -5.882812 3.828125 -5.59375 C 4.160156 -5.3125 4.40625 -4.90625 4.5625 -4.375 L 3.828125 -4.375 C 3.710938 -4.695312 3.550781 -4.945312 3.34375 -5.125 C 3.132812 -5.300781 2.867188 -5.390625 2.546875 -5.390625 C 2.347656 -5.390625 2.160156 -5.347656 1.984375 -5.265625 C 1.804688 -5.179688 1.648438 -5.039062 1.515625 -4.84375 C 1.390625 -4.65625 1.289062 -4.40625 1.21875 -4.09375 C 1.144531 -3.789062 1.109375 -3.414062 1.109375 -2.96875 C 1.109375 -2.519531 1.144531 -2.140625 1.21875 -1.828125 C 1.289062 -1.523438 1.390625 -1.28125 1.515625 -1.09375 C 1.648438 -0.90625 1.804688 -0.765625 1.984375 -0.671875 C 2.160156 -0.585938 2.347656 -0.546875 2.546875 -0.546875 C 2.867188 -0.546875 3.148438 -0.648438 3.390625 -0.859375 C 3.628906 -1.066406 3.800781 -1.40625 3.90625 -1.875 L 4.625 -1.875 C 4.476562 -1.1875 4.222656 -0.6875 3.859375 -0.375 C 3.492188 -0.0703125 3.054688 0.078125 2.546875 0.078125 Z M 2.546875 0.078125 "/></g></g></g><g fill="#336870" fill-opacity="1"><g transform="translate(124.890985, 225.958336)"><g><path d="M 2.546875 0.078125 C 2.242188 0.078125 1.957031 0.0195312 1.6875 -0.09375 C 1.425781 -0.207031 1.195312 -0.390625 1 -0.640625 C 0.8125 -0.890625 0.660156 -1.207031 0.546875 -1.59375 C 0.429688 -1.976562 0.375 -2.4375 0.375 -2.96875 C 0.375 -3.507812 0.429688 -3.972656 0.546875 -4.359375 C 0.660156 -4.742188 0.8125 -5.054688 1 -5.296875 C 1.195312 -5.546875 1.425781 -5.726562 1.6875 -5.84375 C 1.957031 -5.96875 2.242188 -6.03125 2.546875 -6.03125 C 2.859375 -6.03125 3.144531 -5.96875 3.40625 -5.84375 C 3.675781 -5.726562 3.90625 -5.546875 4.09375 -5.296875 C 4.289062 -5.054688 4.441406 -4.742188 4.546875 -4.359375 C 4.660156 -3.972656 4.71875 -3.507812 4.71875 -2.96875 C 4.71875 -2.4375 4.660156 -1.976562 4.546875 -1.59375 C 4.441406 -1.207031 4.289062 -0.890625 4.09375 -0.640625 C 3.90625 -0.390625 3.675781 -0.207031 3.40625 -0.09375 C 3.144531 0.0195312 2.859375 0.078125 2.546875 0.078125 Z M 2.546875 -0.546875 C 2.753906 -0.546875 2.945312 -0.585938 3.125 -0.671875 C 3.300781 -0.765625 3.453125 -0.90625 3.578125 -1.09375 C 3.710938 -1.28125 3.816406 -1.523438 3.890625 -1.828125 C 3.960938 -2.140625 4 -2.519531 4 -2.96875 C 4 -3.414062 3.960938 -3.789062 3.890625 -4.09375 C 3.816406 -4.40625 3.710938 -4.65625 3.578125 -4.84375 C 3.453125 -5.039062 3.300781 -5.179688 3.125 -5.265625 C 2.945312 -5.347656 2.753906 -5.390625 2.546875 -5.390625 C 2.347656 -5.390625 2.160156 -5.347656 1.984375 -5.265625 C 1.804688 -5.179688 1.648438 -5.039062 1.515625 -4.84375 C 1.390625 -4.65625 1.289062 -4.40625 1.21875 -4.09375 C 1.144531 -3.789062 1.109375 -3.414062 1.109375 -2.96875 C 1.109375 -2.519531 1.144531 -2.140625 1.21875 -1.828125 C 1.289062 -1.523438 1.390625 -1.28125 1.515625 -1.09375 C 1.648438 -0.90625 1.804688 -0.765625 1.984375 -0.671875 C 2.160156 -0.585938 2.347656 -0.546875 2.546875 -0.546875 Z M 2.546875 -0.546875 "/></g></g></g><g fill="#336870" fill-opacity="1"><g transform="translate(132.898051, 225.958336)"><g><path d="M 2.640625 0.078125 C 2.359375 0.078125 2.09375 0.046875 1.84375 -0.015625 C 1.601562 -0.0859375 1.390625 -0.191406 1.203125 -0.328125 C 1.015625 -0.472656 0.859375 -0.648438 0.734375 -0.859375 C 0.617188 -1.078125 0.546875 -1.328125 0.515625 -1.609375 L 1.234375 -1.609375 C 1.296875 -1.253906 1.453125 -0.988281 1.703125 -0.8125 C 1.960938 -0.632812 2.273438 -0.546875 2.640625 -0.546875 C 2.878906 -0.546875 3.078125 -0.578125 3.234375 -0.640625 C 3.390625 -0.703125 3.515625 -0.785156 3.609375 -0.890625 C 3.703125 -0.992188 3.769531 -1.109375 3.8125 -1.234375 C 3.851562 -1.359375 3.875 -1.484375 3.875 -1.609375 C 3.875 -1.804688 3.828125 -1.960938 3.734375 -2.078125 C 3.640625 -2.203125 3.515625 -2.300781 3.359375 -2.375 C 3.210938 -2.445312 3.046875 -2.507812 2.859375 -2.5625 C 2.671875 -2.613281 2.472656 -2.664062 2.265625 -2.71875 C 2.066406 -2.78125 1.875 -2.847656 1.6875 -2.921875 C 1.5 -3.003906 1.328125 -3.109375 1.171875 -3.234375 C 1.023438 -3.359375 0.90625 -3.515625 0.8125 -3.703125 C 0.726562 -3.890625 0.6875 -4.128906 0.6875 -4.421875 C 0.6875 -4.640625 0.722656 -4.847656 0.796875 -5.046875 C 0.878906 -5.242188 1 -5.414062 1.15625 -5.5625 C 1.320312 -5.707031 1.519531 -5.820312 1.75 -5.90625 C 1.976562 -5.988281 2.242188 -6.03125 2.546875 -6.03125 C 2.796875 -6.03125 3.023438 -6 3.234375 -5.9375 C 3.453125 -5.882812 3.644531 -5.796875 3.8125 -5.671875 C 3.988281 -5.554688 4.128906 -5.398438 4.234375 -5.203125 C 4.347656 -5.015625 4.425781 -4.78125 4.46875 -4.5 L 3.734375 -4.5 C 3.691406 -4.78125 3.5625 -5 3.34375 -5.15625 C 3.132812 -5.3125 2.867188 -5.390625 2.546875 -5.390625 C 2.160156 -5.390625 1.875 -5.296875 1.6875 -5.109375 C 1.5 -4.929688 1.40625 -4.703125 1.40625 -4.421875 C 1.40625 -4.210938 1.445312 -4.046875 1.53125 -3.921875 C 1.625 -3.796875 1.742188 -3.691406 1.890625 -3.609375 C 2.046875 -3.523438 2.21875 -3.457031 2.40625 -3.40625 C 2.59375 -3.351562 2.785156 -3.296875 2.984375 -3.234375 C 3.191406 -3.179688 3.390625 -3.117188 3.578125 -3.046875 C 3.773438 -2.972656 3.945312 -2.875 4.09375 -2.75 C 4.238281 -2.632812 4.359375 -2.484375 4.453125 -2.296875 C 4.546875 -2.117188 4.59375 -1.890625 4.59375 -1.609375 C 4.59375 -1.390625 4.550781 -1.175781 4.46875 -0.96875 C 4.394531 -0.757812 4.273438 -0.578125 4.109375 -0.421875 C 3.953125 -0.273438 3.75 -0.15625 3.5 -0.0625 C 3.25 0.03125 2.960938 0.078125 2.640625 0.078125 Z M 2.640625 0.078125 "/></g></g></g><g fill="#336870" fill-opacity="1"><g transform="translate(140.905117, 225.958336)"><g><path d="M 0.546875 -5.953125 L 1.53125 -5.953125 L 2.53125 -3.1875 L 2.5625 -3.1875 L 3.5625 -5.953125 L 4.546875 -5.953125 L 4.546875 0 L 3.828125 0 L 3.828125 -3.5625 L 4 -5.0625 L 3.90625 -5.0625 L 3.640625 -4.296875 L 2.828125 -2.046875 L 2.265625 -2.046875 L 1.46875 -4.296875 L 1.1875 -5.0625 L 1.109375 -5.0625 L 1.28125 -3.5625 L 1.28125 0 L 0.546875 0 Z M 0.546875 -5.953125 "/></g></g></g><g fill="#336870" fill-opacity="1"><g transform="translate(148.912182, 225.958336)"><g><path d="M 0.71875 -5.953125 L 4.296875 -5.953125 L 4.296875 -5.3125 L 1.4375 -5.3125 L 1.4375 -3.3125 L 4.125 -3.3125 L 4.125 -2.671875 L 1.4375 -2.671875 L 1.4375 -0.640625 L 4.375 -0.640625 L 4.375 0 L 0.71875 0 Z M 0.71875 -5.953125 "/></g></g></g><g fill="#336870" fill-opacity="1"><g transform="translate(156.919248, 225.958336)"><g><path d="M 2.203125 -5.3125 L 1.109375 -5.3125 L 1.109375 -4.296875 L 0.375 -4.296875 L 0.375 -5.953125 L 4.71875 -5.953125 L 4.71875 -4.296875 L 4 -4.296875 L 4 -5.3125 L 2.9375 -5.3125 L 2.9375 0 L 2.203125 0 Z M 2.203125 -5.3125 "/></g></g></g><g fill="#336870" fill-opacity="1"><g transform="translate(164.926314, 225.958336)"><g><path d="M 0.9375 -0.640625 L 2.203125 -0.640625 L 2.203125 -5.3125 L 0.9375 -5.3125 L 0.9375 -5.953125 L 4.203125 -5.953125 L 4.203125 -5.3125 L 2.9375 -5.3125 L 2.9375 -0.640625 L 4.203125 -0.640625 L 4.203125 0 L 0.9375 0 Z M 0.9375 -0.640625 "/></g></g></g><g fill="#336870" fill-opacity="1"><g transform="translate(172.933376, 225.958336)"><g><path d="M 2.546875 0.078125 C 2.242188 0.078125 1.957031 0.0195312 1.6875 -0.09375 C 1.425781 -0.207031 1.195312 -0.390625 1 -0.640625 C 0.8125 -0.890625 0.660156 -1.207031 0.546875 -1.59375 C 0.429688 -1.976562 0.375 -2.4375 0.375 -2.96875 C 0.375 -3.507812 0.429688 -3.972656 0.546875 -4.359375 C 0.660156 -4.742188 0.8125 -5.054688 1 -5.296875 C 1.195312 -5.546875 1.425781 -5.726562 1.6875 -5.84375 C 1.957031 -5.96875 2.242188 -6.03125 2.546875 -6.03125 C 3.066406 -6.03125 3.492188 -5.882812 3.828125 -5.59375 C 4.160156 -5.3125 4.40625 -4.90625 4.5625 -4.375 L 3.828125 -4.375 C 3.710938 -4.695312 3.550781 -4.945312 3.34375 -5.125 C 3.132812 -5.300781 2.867188 -5.390625 2.546875 -5.390625 C 2.347656 -5.390625 2.160156 -5.347656 1.984375 -5.265625 C 1.804688 -5.179688 1.648438 -5.039062 1.515625 -4.84375 C 1.390625 -4.65625 1.289062 -4.40625 1.21875 -4.09375 C 1.144531 -3.789062 1.109375 -3.414062 1.109375 -2.96875 C 1.109375 -2.519531 1.144531 -2.140625 1.21875 -1.828125 C 1.289062 -1.523438 1.390625 -1.28125 1.515625 -1.09375 C 1.648438 -0.90625 1.804688 -0.765625 1.984375 -0.671875 C 2.160156 -0.585938 2.347656 -0.546875 2.546875 -0.546875 C 2.867188 -0.546875 3.148438 -0.648438 3.390625 -0.859375 C 3.628906 -1.066406 3.800781 -1.40625 3.90625 -1.875 L 4.625 -1.875 C 4.476562 -1.1875 4.222656 -0.6875 3.859375 -0.375 C 3.492188 -0.0703125 3.054688 0.078125 2.546875 0.078125 Z M 2.546875 0.078125 "/></g></g></g><g fill="#336870" fill-opacity="1"><g transform="translate(180.940445, 225.958336)"><g><path d="M 2.640625 0.078125 C 2.359375 0.078125 2.09375 0.046875 1.84375 -0.015625 C 1.601562 -0.0859375 1.390625 -0.191406 1.203125 -0.328125 C 1.015625 -0.472656 0.859375 -0.648438 0.734375 -0.859375 C 0.617188 -1.078125 0.546875 -1.328125 0.515625 -1.609375 L 1.234375 -1.609375 C 1.296875 -1.253906 1.453125 -0.988281 1.703125 -0.8125 C 1.960938 -0.632812 2.273438 -0.546875 2.640625 -0.546875 C 2.878906 -0.546875 3.078125 -0.578125 3.234375 -0.640625 C 3.390625 -0.703125 3.515625 -0.785156 3.609375 -0.890625 C 3.703125 -0.992188 3.769531 -1.109375 3.8125 -1.234375 C 3.851562 -1.359375 3.875 -1.484375 3.875 -1.609375 C 3.875 -1.804688 3.828125 -1.960938 3.734375 -2.078125 C 3.640625 -2.203125 3.515625 -2.300781 3.359375 -2.375 C 3.210938 -2.445312 3.046875 -2.507812 2.859375 -2.5625 C 2.671875 -2.613281 2.472656 -2.664062 2.265625 -2.71875 C 2.066406 -2.78125 1.875 -2.847656 1.6875 -2.921875 C 1.5 -3.003906 1.328125 -3.109375 1.171875 -3.234375 C 1.023438 -3.359375 0.90625 -3.515625 0.8125 -3.703125 C 0.726562 -3.890625 0.6875 -4.128906 0.6875 -4.421875 C 0.6875 -4.640625 0.722656 -4.847656 0.796875 -5.046875 C 0.878906 -5.242188 1 -5.414062 1.15625 -5.5625 C 1.320312 -5.707031 1.519531 -5.820312 1.75 -5.90625 C 1.976562 -5.988281 2.242188 -6.03125 2.546875 -6.03125 C 2.796875 -6.03125 3.023438 -6 3.234375 -5.9375 C 3.453125 -5.882812 3.644531 -5.796875 3.8125 -5.671875 C 3.988281 -5.554688 4.128906 -5.398438 4.234375 -5.203125 C 4.347656 -5.015625 4.425781 -4.78125 4.46875 -4.5 L 3.734375 -4.5 C 3.691406 -4.78125 3.5625 -5 3.34375 -5.15625 C 3.132812 -5.3125 2.867188 -5.390625 2.546875 -5.390625 C 2.160156 -5.390625 1.875 -5.296875 1.6875 -5.109375 C 1.5 -4.929688 1.40625 -4.703125 1.40625 -4.421875 C 1.40625 -4.210938 1.445312 -4.046875 1.53125 -3.921875 C 1.625 -3.796875 1.742188 -3.691406 1.890625 -3.609375 C 2.046875 -3.523438 2.21875 -3.457031 2.40625 -3.40625 C 2.59375 -3.351562 2.785156 -3.296875 2.984375 -3.234375 C 3.191406 -3.179688 3.390625 -3.117188 3.578125 -3.046875 C 3.773438 -2.972656 3.945312 -2.875 4.09375 -2.75 C 4.238281 -2.632812 4.359375 -2.484375 4.453125 -2.296875 C 4.546875 -2.117188 4.59375 -1.890625 4.59375 -1.609375 C 4.59375 -1.390625 4.550781 -1.175781 4.46875 -0.96875 C 4.394531 -0.757812 4.273438 -0.578125 4.109375 -0.421875 C 3.953125 -0.273438 3.75 -0.15625 3.5 -0.0625 C 3.25 0.03125 2.960938 0.078125 2.640625 0.078125 Z M 2.640625 0.078125 "/></g></g></g><g fill="#336870" fill-opacity="1"><g transform="translate(188.947513, 225.958336)"><g/></g></g><g fill="#336870" fill-opacity="1"><g transform="translate(196.954581, 225.958336)"><g><path d="M 0.71875 -5.953125 L 2.8125 -5.953125 C 3.363281 -5.953125 3.789062 -5.800781 4.09375 -5.5 C 4.394531 -5.207031 4.546875 -4.804688 4.546875 -4.296875 C 4.546875 -4.015625 4.476562 -3.753906 4.34375 -3.515625 C 4.207031 -3.285156 4.019531 -3.117188 3.78125 -3.015625 C 4.019531 -2.929688 4.21875 -2.765625 4.375 -2.515625 C 4.539062 -2.265625 4.625 -1.976562 4.625 -1.65625 C 4.625 -1.144531 4.472656 -0.738281 4.171875 -0.4375 C 3.867188 -0.144531 3.441406 0 2.890625 0 L 0.71875 0 Z M 2.84375 -0.640625 C 3.164062 -0.640625 3.421875 -0.734375 3.609375 -0.921875 C 3.804688 -1.109375 3.90625 -1.351562 3.90625 -1.65625 C 3.90625 -1.957031 3.804688 -2.203125 3.609375 -2.390625 C 3.421875 -2.578125 3.164062 -2.671875 2.84375 -2.671875 L 1.4375 -2.671875 L 1.4375 -0.640625 Z M 2.765625 -3.265625 C 3.085938 -3.265625 3.34375 -3.359375 3.53125 -3.546875 C 3.726562 -3.742188 3.828125 -3.992188 3.828125 -4.296875 C 3.828125 -4.597656 3.726562 -4.84375 3.53125 -5.03125 C 3.34375 -5.21875 3.085938 -5.3125 2.765625 -5.3125 L 1.4375 -5.3125 L 1.4375 -3.265625 Z M 2.765625 -3.265625 "/></g></g></g><g fill="#336870" fill-opacity="1"><g transform="translate(204.96165, 225.958336)"><g><path d="M 2.546875 0.078125 C 2.242188 0.078125 1.957031 0.0195312 1.6875 -0.09375 C 1.425781 -0.207031 1.195312 -0.390625 1 -0.640625 C 0.8125 -0.890625 0.660156 -1.207031 0.546875 -1.59375 C 0.429688 -1.976562 0.375 -2.4375 0.375 -2.96875 C 0.375 -3.507812 0.429688 -3.972656 0.546875 -4.359375 C 0.660156 -4.742188 0.8125 -5.054688 1 -5.296875 C 1.195312 -5.546875 1.425781 -5.726562 1.6875 -5.84375 C 1.957031 -5.96875 2.242188 -6.03125 2.546875 -6.03125 C 2.859375 -6.03125 3.144531 -5.96875 3.40625 -5.84375 C 3.675781 -5.726562 3.90625 -5.546875 4.09375 -5.296875 C 4.289062 -5.054688 4.441406 -4.742188 4.546875 -4.359375 C 4.660156 -3.972656 4.71875 -3.507812 4.71875 -2.96875 C 4.71875 -2.4375 4.660156 -1.976562 4.546875 -1.59375 C 4.441406 -1.207031 4.289062 -0.890625 4.09375 -0.640625 C 3.90625 -0.390625 3.675781 -0.207031 3.40625 -0.09375 C 3.144531 0.0195312 2.859375 0.078125 2.546875 0.078125 Z M 2.546875 -0.546875 C 2.753906 -0.546875 2.945312 -0.585938 3.125 -0.671875 C 3.300781 -0.765625 3.453125 -0.90625 3.578125 -1.09375 C 3.710938 -1.28125 3.816406 -1.523438 3.890625 -1.828125 C 3.960938 -2.140625 4 -2.519531 4 -2.96875 C 4 -3.414062 3.960938 -3.789062 3.890625 -4.09375 C 3.816406 -4.40625 3.710938 -4.65625 3.578125 -4.84375 C 3.453125 -5.039062 3.300781 -5.179688 3.125 -5.265625 C 2.945312 -5.347656 2.753906 -5.390625 2.546875 -5.390625 C 2.347656 -5.390625 2.160156 -5.347656 1.984375 -5.265625 C 1.804688 -5.179688 1.648438 -5.039062 1.515625 -4.84375 C 1.390625 -4.65625 1.289062 -4.40625 1.21875 -4.09375 C 1.144531 -3.789062 1.109375 -3.414062 1.109375 -2.96875 C 1.109375 -2.519531 1.144531 -2.140625 1.21875 -1.828125 C 1.289062 -1.523438 1.390625 -1.28125 1.515625 -1.09375 C 1.648438 -0.90625 1.804688 -0.765625 1.984375 -0.671875 C 2.160156 -0.585938 2.347656 -0.546875 2.546875 -0.546875 Z M 2.546875 -0.546875 "/></g></g></g><g fill="#336870" fill-opacity="1"><g transform="translate(212.968718, 225.958336)"><g><path d="M 2.546875 0.078125 C 1.953125 0.078125 1.484375 -0.101562 1.140625 -0.46875 C 0.804688 -0.84375 0.640625 -1.421875 0.640625 -2.203125 L 0.640625 -5.953125 L 1.359375 -5.953125 L 1.359375 -2.203125 C 1.359375 -1.609375 1.460938 -1.179688 1.671875 -0.921875 C 1.890625 -0.671875 2.179688 -0.546875 2.546875 -0.546875 C 2.910156 -0.546875 3.195312 -0.671875 3.40625 -0.921875 C 3.625 -1.179688 3.734375 -1.609375 3.734375 -2.203125 L 3.734375 -5.953125 L 4.46875 -5.953125 L 4.46875 -2.203125 C 4.46875 -1.421875 4.296875 -0.84375 3.953125 -0.46875 C 3.609375 -0.101562 3.140625 0.078125 2.546875 0.078125 Z M 2.546875 0.078125 "/></g></g></g><g fill="#336870" fill-opacity="1"><g transform="translate(220.975786, 225.958336)"><g><path d="M 2.203125 -5.3125 L 1.109375 -5.3125 L 1.109375 -4.296875 L 0.375 -4.296875 L 0.375 -5.953125 L 4.71875 -5.953125 L 4.71875 -4.296875 L 4 -4.296875 L 4 -5.3125 L 2.9375 -5.3125 L 2.9375 0 L 2.203125 0 Z M 2.203125 -5.3125 "/></g></g></g><g fill="#336870" fill-opacity="1"><g transform="translate(228.982855, 225.958336)"><g><path d="M 0.9375 -0.640625 L 2.203125 -0.640625 L 2.203125 -5.3125 L 0.9375 -5.3125 L 0.9375 -5.953125 L 4.203125 -5.953125 L 4.203125 -5.3125 L 2.9375 -5.3125 L 2.9375 -0.640625 L 4.203125 -0.640625 L 4.203125 0 L 0.9375 0 Z M 0.9375 -0.640625 "/></g></g></g><g fill="#336870" fill-opacity="1"><g transform="translate(236.989923, 225.958336)"><g><path d="M 3.21875 -0.03125 C 3.113281 0.0078125 3.003906 0.0351562 2.890625 0.046875 C 2.785156 0.0664062 2.671875 0.078125 2.546875 0.078125 C 2.242188 0.078125 1.957031 0.0195312 1.6875 -0.09375 C 1.425781 -0.207031 1.195312 -0.390625 1 -0.640625 C 0.8125 -0.890625 0.660156 -1.207031 0.546875 -1.59375 C 0.429688 -1.976562 0.375 -2.4375 0.375 -2.96875 C 0.375 -3.507812 0.429688 -3.972656 0.546875 -4.359375 C 0.660156 -4.742188 0.8125 -5.054688 1 -5.296875 C 1.195312 -5.546875 1.425781 -5.726562 1.6875 -5.84375 C 1.957031 -5.96875 2.242188 -6.03125 2.546875 -6.03125 C 2.859375 -6.03125 3.144531 -5.96875 3.40625 -5.84375 C 3.675781 -5.726562 3.90625 -5.546875 4.09375 -5.296875 C 4.289062 -5.054688 4.441406 -4.742188 4.546875 -4.359375 C 4.660156 -3.972656 4.71875 -3.507812 4.71875 -2.96875 C 4.71875 -2.300781 4.632812 -1.753906 4.46875 -1.328125 C 4.300781 -0.898438 4.070312 -0.566406 3.78125 -0.328125 L 4.421875 0.84375 L 3.703125 0.84375 Z M 2.546875 -0.546875 C 2.671875 -0.546875 2.796875 -0.566406 2.921875 -0.609375 L 2.203125 -1.90625 L 2.9375 -1.90625 L 3.453125 -0.9375 C 3.617188 -1.113281 3.75 -1.367188 3.84375 -1.703125 C 3.945312 -2.035156 4 -2.457031 4 -2.96875 C 4 -3.414062 3.960938 -3.789062 3.890625 -4.09375 C 3.816406 -4.40625 3.710938 -4.65625 3.578125 -4.84375 C 3.453125 -5.039062 3.300781 -5.179688 3.125 -5.265625 C 2.945312 -5.347656 2.753906 -5.390625 2.546875 -5.390625 C 2.347656 -5.390625 2.160156 -5.347656 1.984375 -5.265625 C 1.804688 -5.179688 1.648438 -5.039062 1.515625 -4.84375 C 1.390625 -4.65625 1.289062 -4.40625 1.21875 -4.09375 C 1.144531 -3.789062 1.109375 -3.414062 1.109375 -2.96875 C 1.109375 -2.519531 1.144531 -2.140625 1.21875 -1.828125 C 1.289062 -1.523438 1.390625 -1.28125 1.515625 -1.09375 C 1.648438 -0.90625 1.804688 -0.765625 1.984375 -0.671875 C 2.160156 -0.585938 2.347656 -0.546875 2.546875 -0.546875 Z M 2.546875 -0.546875 "/></g></g></g><g fill="#336870" fill-opacity="1"><g transform="translate(244.996991, 225.958336)"><g><path d="M 2.546875 0.078125 C 1.953125 0.078125 1.484375 -0.101562 1.140625 -0.46875 C 0.804688 -0.84375 0.640625 -1.421875 0.640625 -2.203125 L 0.640625 -5.953125 L 1.359375 -5.953125 L 1.359375 -2.203125 C 1.359375 -1.609375 1.460938 -1.179688 1.671875 -0.921875 C 1.890625 -0.671875 2.179688 -0.546875 2.546875 -0.546875 C 2.910156 -0.546875 3.195312 -0.671875 3.40625 -0.921875 C 3.625 -1.179688 3.734375 -1.609375 3.734375 -2.203125 L 3.734375 -5.953125 L 4.46875 -5.953125 L 4.46875 -2.203125 C 4.46875 -1.421875 4.296875 -0.84375 3.953125 -0.46875 C 3.609375 -0.101562 3.140625 0.078125 2.546875 0.078125 Z M 2.546875 0.078125 "/></g></g></g><g fill="#336870" fill-opacity="1"><g transform="translate(253.00406, 225.958336)"><g><path d="M 0.71875 -5.953125 L 4.296875 -5.953125 L 4.296875 -5.3125 L 1.4375 -5.3125 L 1.4375 -3.3125 L 4.125 -3.3125 L 4.125 -2.671875 L 1.4375 -2.671875 L 1.4375 -0.640625 L 4.375 -0.640625 L 4.375 0 L 0.71875 0 Z M 0.71875 -5.953125 "/></g></g></g></svg>